Roman_opsz17.ufo
<glyph name="exclam" format="2">
  <advance width="249"/>
  <unicode hex="0021"/>
  <outline>
    <contour>
      <point x="166" y="670" type="line"/>
      <point x="166" y="699"/>
      <point x="142" y="710"/>
      <point x="125" y="710" type="curve" smooth="yes"/>
      <point x="108" y="710"/>
      <point x="84" y="699"/>
      <point x="84" y="670" type="curve"/>
      <point x="115" y="187" type="line" smooth="yes"/>
      <point x="116" y="174"/>
      <point x="116" y="169"/>
      <point x="125" y="169" type="curve" smooth="yes"/>
      <point x="134" y="169"/>
      <point x="134" y="174"/>
      <point x="135" y="187" type="curve" smooth="yes"/>
    </contour>
    <contour>
      <point x="166" y="41" type="curve" smooth="yes"/>
      <point x="166" y="63"/>
      <point x="148" y="82"/>
      <point x="125" y="82" type="curve" smooth="yes"/>
      <point x="103" y="82"/>
      <point x="84" y="64"/>
      <point x="84" y="41" type="curve" smooth="yes"/>
      <point x="84" y="19"/>
      <point x="102" y="0"/>
      <point x="125" y="0" type="curve" smooth="yes"/>
      <point x="147" y="0"/>
      <point x="166" y="18"/>
    </contour>
  </outline>
</glyph>
<glyph name="parenleft" format="2">
  <advance width="354"/>
  <unicode hex="0028"/>
  <outline>
    <contour>
      <point x="306" y="-244" type="curve" smooth="yes"/>
      <point x="306" y="-243"/>
      <point x="306" y="-241"/>
      <point x="303" y="-238" type="curve" smooth="yes"/>
      <point x="257" y="-191"/>
      <point x="134" y="-63"/>
      <point x="134" y="249" type="curve" smooth="yes"/>
      <point x="134" y="561"/>
      <point x="255" y="688"/>
      <point x="304" y="738" type="curve"/>
      <point x="304" y="739"/>
      <point x="306" y="741"/>
      <point x="306" y="744" type="curve" smooth="yes"/>
      <point x="306" y="747"/>
      <point x="303" y="749"/>
      <point x="299" y="749" type="curve" smooth="yes"/>
      <point x="288" y="749"/>
      <point x="203" y="675"/>
      <point x="154" y="565" type="curve" smooth="yes"/>
      <point x="104" y="454"/>
      <point x="90" y="346"/>
      <point x="90" y="250" type="curve" smooth="yes"/>
      <point x="90" y="178"/>
      <point x="97" y="56"/>
      <point x="157" y="-73" type="curve" smooth="yes"/>
      <point x="205" y="-177"/>
      <point x="287" y="-250"/>
      <point x="299" y="-250" type="curve" smooth="yes"/>
      <point x="304" y="-250"/>
      <point x="306" y="-248"/>
    </contour>
  </outline>
</glyph>
<glyph name="parenright" format="2">
  <advance width="354"/>
  <unicode hex="0029"/>
  <outline>
    <contour>
      <point x="54" y="-250" type="curve" smooth="yes"/>
      <point x="65" y="-250"/>
      <point x="150" y="-176"/>
      <point x="199" y="-66" type="curve" smooth="yes"/>
      <point x="249" y="45"/>
      <point x="263" y="153"/>
      <point x="263" y="249" type="curve" smooth="yes"/>
      <point x="263" y="321"/>
      <point x="256" y="443"/>
      <point x="196" y="572" type="curve" smooth="yes"/>
      <point x="148" y="676"/>
      <point x="66" y="749"/>
      <point x="54" y="749" type="curve" smooth="yes"/>
      <point x="51" y="749"/>
      <point x="47" y="748"/>
      <point x="47" y="743" type="curve" smooth="yes"/>
      <point x="47" y="741"/>
      <point x="48" y="740"/>
      <point x="49" y="738" type="curve"/>
      <point x="97" y="688"/>
      <point x="219" y="561"/>
      <point x="219" y="250" type="curve" smooth="yes"/>
      <point x="219" y="-62"/>
      <point x="98" y="-189"/>
      <point x="49" y="-239" type="curve"/>
      <point x="48" y="-241"/>
      <point x="47" y="-242"/>
      <point x="47" y="-244" type="curve" smooth="yes"/>
      <point x="47" y="-249"/>
      <point x="51" y="-250"/>
    </contour>
  </outline>
</glyph>
<glyph name="asterisk" format="2">
  <advance width="458"/>
  <unicode hex="002A"/>
  <outline>
    <contour>
      <point x="237" y="519" type="line"/>
      <point x="363" y="426" type="line" smooth="yes"/>
      <point x="374" y="417"/>
      <point x="376" y="417"/>
      <point x="381" y="417" type="curve" smooth="yes"/>
      <point x="395" y="417"/>
      <point x="402" y="429"/>
      <point x="402" y="438" type="curve" smooth="yes"/>
      <point x="402" y="449"/>
      <point x="396" y="453"/>
      <point x="385" y="459" type="curve" smooth="yes"/>
      <point x="244" y="534" type="line"/>
      <point x="385" y="610" type="line" smooth="yes"/>
      <point x="397" y="617"/>
      <point x="402" y="619"/>
      <point x="402" y="630" type="curve" smooth="yes"/>
      <point x="402" y="651"/>
      <point x="381" y="651"/>
      <point x="375" y="651" type="curve"/>
      <point x="237" y="549" type="line"/>
      <point x="250" y="729" type="line"/>
      <point x="248" y="741"/>
      <point x="240" y="749"/>
      <point x="229" y="749" type="curve" smooth="yes"/>
      <point x="217" y="749"/>
      <point x="209" y="739"/>
      <point x="209" y="730" type="curve"/>
      <point x="221" y="549" type="line"/>
      <point x="95" y="642" type="line" smooth="yes"/>
      <point x="84" y="651"/>
      <point x="82" y="651"/>
      <point x="77" y="651" type="curve" smooth="yes"/>
      <point x="63" y="651"/>
      <point x="56" y="639"/>
      <point x="56" y="630" type="curve" smooth="yes"/>
      <point x="56" y="619"/>
      <point x="62" y="615"/>
      <point x="73" y="609" type="curve" smooth="yes"/>
      <point x="214" y="534" type="line"/>
      <point x="73" y="458" type="line" smooth="yes"/>
      <point x="61" y="451"/>
      <point x="56" y="449"/>
      <point x="56" y="438" type="curve" smooth="yes"/>
      <point x="56" y="417"/>
      <point x="77" y="417"/>
      <point x="83" y="417" type="curve"/>
      <point x="221" y="519" type="line"/>
      <point x="208" y="338" type="line"/>
      <point x="209" y="329"/>
      <point x="216" y="319"/>
      <point x="229" y="319" type="curve" smooth="yes"/>
      <point x="241" y="319"/>
      <point x="249" y="328"/>
      <point x="249" y="339" type="curve"/>
      <point x="248" y="354" type="line"/>
    </contour>
  </outline>
</glyph>
<glyph name="comma" format="2">
  <advance width="249"/>
  <unicode hex="002C"/>
  <outline>
    <contour>
      <point x="101" y="-194" type="curve" smooth="yes"/>
      <point x="107" y="-194"/>
      <point x="176" y="-124"/>
      <point x="176" y="-13" type="curve" smooth="yes"/>
      <point x="176" y="20"/>
      <point x="172" y="82"/>
      <point x="125" y="82" type="curve" smooth="yes"/>
      <point x="103" y="82"/>
      <point x="84" y="67"/>
      <point x="84" y="41" type="curve" smooth="yes"/>
      <point x="84" y="15"/>
      <point x="103" y="0"/>
      <point x="125" y="0" type="curve" smooth="yes"/>
      <point x="137" y="0"/>
      <point x="150" y="5"/>
      <point x="158" y="16" type="curve"/>
      <point x="166" y="-35"/>
      <point x="153" y="-113"/>
      <point x="98" y="-177" type="curve"/>
      <point x="93" y="-182"/>
      <point x="93" y="-184"/>
      <point x="93" y="-186" type="curve" smooth="yes"/>
      <point x="93" y="-190"/>
      <point x="97" y="-194"/>
    </contour>
  </outline>
</glyph>
<glyph name="period" format="2">
  <advance width="249"/>
  <unicode hex="002E"/>
  <outline>
    <contour>
      <point x="166" y="41" type="curve" smooth="yes"/>
      <point x="166" y="66"/>
      <point x="146" y="82"/>
      <point x="125" y="82" type="curve" smooth="yes"/>
      <point x="105" y="82"/>
      <point x="84" y="66"/>
      <point x="84" y="41" type="curve" smooth="yes"/>
      <point x="84" y="16"/>
      <point x="104" y="0"/>
      <point x="125" y="0" type="curve" smooth="yes"/>
      <point x="145" y="0"/>
      <point x="166" y="16"/>
    </contour>
  </outline>
</glyph>
<glyph name="zero" format="2">
  <advance width="458"/>
  <unicode hex="0030"/>
  <outline>
    <contour>
      <point x="420" y="321" type="curve" smooth="yes"/>
      <point x="420" y="382"/>
      <point x="419" y="486"/>
      <point x="377" y="566" type="curve" smooth="yes"/>
      <point x="340" y="636"/>
      <point x="281" y="661"/>
      <point x="229" y="661" type="curve" smooth="yes"/>
      <point x="181" y="661"/>
      <point x="120" y="639"/>
      <point x="82" y="567" type="curve" smooth="yes"/>
      <point x="42" y="492"/>
      <point x="38" y="399"/>
      <point x="38" y="321" type="curve" smooth="yes"/>
      <point x="38" y="264"/>
      <point x="39" y="177"/>
      <point x="70" y="101" type="curve" smooth="yes"/>
      <point x="113" y="-2"/>
      <point x="190" y="-16"/>
      <point x="229" y="-16" type="curve" smooth="yes"/>
      <point x="275" y="-16"/>
      <point x="345" y="3"/>
      <point x="386" y="98" type="curve" smooth="yes"/>
      <point x="416" y="167"/>
      <point x="420" y="248"/>
    </contour>
    <contour>
      <point x="229" y="0" type="curve" smooth="yes"/>
      <point x="165" y="0"/>
      <point x="127" y="55"/>
      <point x="113" y="131" type="curve" smooth="yes"/>
      <point x="102" y="190"/>
      <point x="102" y="276"/>
      <point x="102" y="332" type="curve" smooth="yes"/>
      <point x="102" y="409"/>
      <point x="102" y="473"/>
      <point x="115" y="534" type="curve" smooth="yes"/>
      <point x="134" y="619"/>
      <point x="190" y="645"/>
      <point x="229" y="645" type="curve" smooth="yes"/>
      <point x="270" y="645"/>
      <point x="323" y="618"/>
      <point x="342" y="536" type="curve" smooth="yes"/>
      <point x="355" y="479"/>
      <point x="356" y="412"/>
      <point x="356" y="332" type="curve" smooth="yes"/>
      <point x="356" y="267"/>
      <point x="356" y="187"/>
      <point x="344" y="128" type="curve" smooth="yes"/>
      <point x="323" y="19"/>
      <point x="264" y="0"/>
    </contour>
  </outline>
</glyph>
<glyph name="one" format="2">
  <advance width="458"/>
  <unicode hex="0031"/>
  <outline>
    <contour>
      <point x="266" y="639" type="line" smooth="yes"/>
      <point x="266" y="660"/>
      <point x="265" y="661"/>
      <point x="251" y="661" type="curve"/>
      <point x="212" y="614"/>
      <point x="153" y="599"/>
      <point x="97" y="597" type="curve"/>
      <point x="94" y="597"/>
      <point x="89" y="597"/>
      <point x="88" y="595" type="curve" smooth="yes"/>
      <point x="87" y="593"/>
      <point x="87" y="591"/>
      <point x="87" y="570" type="curve"/>
      <point x="118" y="570"/>
      <point x="170" y="576"/>
      <point x="210" y="600" type="curve"/>
      <point x="210" y="73" type="line" smooth="yes"/>
      <point x="210" y="38"/>
      <point x="208" y="26"/>
      <point x="122" y="26" type="curve" smooth="yes"/>
      <point x="92" y="26" type="line"/>
      <point x="92" y="0" type="line"/>
      <point x="140" y="1"/>
      <point x="190" y="2"/>
      <point x="238" y="2" type="curve" smooth="yes"/>
      <point x="286" y="2"/>
      <point x="336" y="1"/>
      <point x="384" y="0" type="curve"/>
      <point x="384" y="26" type="line"/>
      <point x="354" y="26" type="line" smooth="yes"/>
      <point x="268" y="26"/>
      <point x="266" y="37"/>
      <point x="266" y="73" type="curve" smooth="yes"/>
    </contour>
  </outline>
</glyph>
<glyph name="three" format="2">
  <advance width="458"/>
  <unicode hex="0033"/>
  <outline>
    <contour>
      <point x="221" y="340" type="line" smooth="yes"/>
      <point x="310" y="340"/>
      <point x="349" y="263"/>
      <point x="349" y="174" type="curve" smooth="yes"/>
      <point x="349" y="54"/>
      <point x="285" y="8"/>
      <point x="227" y="8" type="curve" smooth="yes"/>
      <point x="174" y="8"/>
      <point x="88" y="34"/>
      <point x="61" y="111" type="curve"/>
      <point x="66" y="109"/>
      <point x="71" y="109"/>
      <point x="76" y="109" type="curve" smooth="yes"/>
      <point x="100" y="109"/>
      <point x="118" y="125"/>
      <point x="118" y="151" type="curve" smooth="yes"/>
      <point x="118" y="180"/>
      <point x="96" y="193"/>
      <point x="76" y="193" type="curve" smooth="yes"/>
      <point x="59" y="193"/>
      <point x="33" y="185"/>
      <point x="33" y="148" type="curve" smooth="yes"/>
      <point x="33" y="56"/>
      <point x="123" y="-16"/>
      <point x="229" y="-16" type="curve" smooth="yes"/>
      <point x="340" y="-16"/>
      <point x="425" y="71"/>
      <point x="425" y="173" type="curve" smooth="yes"/>
      <point x="425" y="270"/>
      <point x="345" y="340"/>
      <point x="250" y="351" type="curve"/>
      <point x="326" y="367"/>
      <point x="399" y="435"/>
      <point x="399" y="526" type="curve" smooth="yes"/>
      <point x="399" y="604"/>
      <point x="320" y="661"/>
      <point x="230" y="661" type="curve" smooth="yes"/>
      <point x="139" y="661"/>
      <point x="59" y="605"/>
      <point x="59" y="525" type="curve" smooth="yes"/>
      <point x="59" y="490"/>
      <point x="85" y="484"/>
      <point x="98" y="484" type="curve" smooth="yes"/>
      <point x="119" y="484"/>
      <point x="137" y="497"/>
      <point x="137" y="523" type="curve" smooth="yes"/>
      <point x="137" y="549"/>
      <point x="119" y="562"/>
      <point x="98" y="562" type="curve" smooth="yes"/>
      <point x="94" y="562"/>
      <point x="89" y="562"/>
      <point x="85" y="560" type="curve"/>
      <point x="114" y="626"/>
      <point x="193" y="638"/>
      <point x="228" y="638" type="curve" smooth="yes"/>
      <point x="263" y="638"/>
      <point x="329" y="621"/>
      <point x="329" y="525" type="curve" smooth="yes"/>
      <point x="329" y="497"/>
      <point x="325" y="447"/>
      <point x="291" y="403" type="curve" smooth="yes"/>
      <point x="261" y="364"/>
      <point x="227" y="362"/>
      <point x="194" y="359" type="curve"/>
      <point x="189" y="359"/>
      <point x="166" y="357"/>
      <point x="162" y="357" type="curve"/>
      <point x="155" y="356"/>
      <point x="151" y="355"/>
      <point x="151" y="348" type="curve" smooth="yes"/>
      <point x="151" y="341"/>
      <point x="152" y="340"/>
      <point x="172" y="340" type="curve" smooth="yes"/>
    </contour>
  </outline>
</glyph>
<glyph name="five" format="2">
  <advance width="458"/>
  <unicode hex="0035"/>
  <outline>
    <contour>
      <point x="216" y="-16" type="curve" smooth="yes"/>
      <point x="319" y="-16"/>
      <point x="417" y="73"/>
      <point x="417" y="202" type="curve" smooth="yes"/>
      <point x="417" y="322"/>
      <point x="339" y="415"/>
      <point x="242" y="415" type="curve" smooth="yes"/>
      <point x="191" y="415"/>
      <point x="148" y="396"/>
      <point x="114" y="360" type="curve"/>
      <point x="114" y="585" type="line"/>
      <point x="124" y="581"/>
      <point x="165" y="568"/>
      <point x="207" y="568" type="curve" smooth="yes"/>
      <point x="300" y="568"/>
      <point x="351" y="618"/>
      <point x="380" y="647" type="curve"/>
      <point x="380" y="655"/>
      <point x="380" y="660"/>
      <point x="374" y="660" type="curve" smooth="yes"/>
      <point x="373" y="660"/>
      <point x="371" y="660"/>
      <point x="363" y="656" type="curve"/>
      <point x="328" y="641"/>
      <point x="287" y="629"/>
      <point x="237" y="629" type="curve" smooth="yes"/>
      <point x="207" y="629"/>
      <point x="162" y="633"/>
      <point x="113" y="655" type="curve" smooth="yes"/>
      <point x="102" y="660"/>
      <point x="100" y="660"/>
      <point x="99" y="660" type="curve" smooth="yes"/>
      <point x="94" y="660"/>
      <point x="93" y="659"/>
      <point x="93" y="639" type="curve" smooth="yes"/>
      <point x="93" y="349" type="line" smooth="yes"/>
      <point x="93" y="331"/>
      <point x="93" y="326"/>
      <point x="103" y="326" type="curve" smooth="yes"/>
      <point x="108" y="326"/>
      <point x="110" y="328"/>
      <point x="115" y="335" type="curve" smooth="yes"/>
      <point x="147" y="380"/>
      <point x="191" y="399"/>
      <point x="241" y="399" type="curve" smooth="yes"/>
      <point x="257.2274" y="399.0"/>
      <point x="282.05328198399997" y="394.2708349088"/>
      <point x="304.01617041419746" y="372.1550491324789" type="curve" smooth="yes"/>
      <point x="329.42384628" y="346.57049460959996"/>
      <point x="351.0" y="297.71756"/>
      <point x="351" y="206" type="curve" smooth="yes"/>
      <point x="351" y="174"/>
      <point x="351" y="116"/>
      <point x="321" y="70" type="curve" smooth="yes"/>
      <point x="296" y="29"/>
      <point x="257" y="8"/>
      <point x="214" y="8" type="curve" smooth="yes"/>
      <point x="148" y="8"/>
      <point x="81" y="54"/>
      <point x="63" y="131" type="curve"/>
      <point x="80" y="125"/>
      <point x="117" y="127"/>
      <point x="117" y="166" type="curve" smooth="yes"/>
      <point x="117" y="193"/>
      <point x="98" y="204"/>
      <point x="79" y="204" type="curve" smooth="yes"/>
      <point x="56" y="204"/>
      <point x="41" y="190"/>
      <point x="41" y="162" type="curve" smooth="yes"/>
      <point x="41" y="75"/>
      <point x="110" y="-16"/>
    </contour>
  </outline>
</glyph>
<glyph name="six" format="2">
  <advance width="458"/>
  <unicode hex="0036"/>
  <outline>
    <contour>
      <point x="106" y="345" type="line" smooth="yes"/>
      <point x="106" y="584"/>
      <point x="218" y="638"/>
      <point x="283" y="638" type="curve" smooth="yes"/>
      <point x="304" y="638"/>
      <point x="355" y="634"/>
      <point x="375" y="595" type="curve"/>
      <point x="359" y="595"/>
      <point x="329" y="595"/>
      <point x="329" y="560" type="curve" smooth="yes"/>
      <point x="329" y="533"/>
      <point x="351" y="524"/>
      <point x="365" y="524" type="curve" smooth="yes"/>
      <point x="374" y="524"/>
      <point x="401" y="528"/>
      <point x="401" y="562" type="curve" smooth="yes"/>
      <point x="401" y="625"/>
      <point x="351" y="661"/>
      <point x="282" y="661" type="curve" smooth="yes"/>
      <point x="163" y="661"/>
      <point x="38" y="537"/>
      <point x="38" y="316" type="curve" smooth="yes"/>
      <point x="38" y="44"/>
      <point x="151" y="-16"/>
      <point x="231" y="-16" type="curve" smooth="yes"/>
      <point x="328" y="-16"/>
      <point x="420" y="71"/>
      <point x="420" y="205" type="curve" smooth="yes"/>
      <point x="420" y="330"/>
      <point x="339" y="421"/>
      <point x="237" y="421" type="curve" smooth="yes"/>
      <point x="176" y="421"/>
      <point x="131" y="381"/>
      <point x="106" y="311" type="curve"/>
    </contour>
    <contour>
      <point x="231" y="8" type="curve" smooth="yes"/>
      <point x="108" y="8"/>
      <point x="108" y="192"/>
      <point x="108" y="229" type="curve" smooth="yes"/>
      <point x="108" y="301"/>
      <point x="142" y="405"/>
      <point x="235" y="405" type="curve" smooth="yes"/>
      <point x="252" y="405"/>
      <point x="301" y="405"/>
      <point x="334" y="336" type="curve" smooth="yes"/>
      <point x="352" y="297"/>
      <point x="352" y="256"/>
      <point x="352" y="206" type="curve" smooth="yes"/>
      <point x="352" y="152"/>
      <point x="352" y="112"/>
      <point x="331" y="72" type="curve" smooth="yes"/>
      <point x="309" y="31"/>
      <point x="277" y="8"/>
    </contour>
  </outline>
</glyph>
<glyph name="seven" format="2">
  <advance width="458"/>
  <unicode hex="0037"/>
  <outline>
    <contour>
      <point x="451" y="623" type="line"/>
      <point x="451" y="645" type="line"/>
      <point x="216" y="645" type="line" smooth="yes"/>
      <point x="99" y="645"/>
      <point x="97" y="658"/>
      <point x="93" y="677" type="curve"/>
      <point x="75" y="677" type="line"/>
      <point x="46" y="490" type="line"/>
      <point x="64" y="490" type="line"/>
      <point x="67" y="509"/>
      <point x="74" y="560"/>
      <point x="86" y="579" type="curve"/>
      <point x="92" y="587"/>
      <point x="166" y="587"/>
      <point x="183" y="587" type="curve" smooth="yes"/>
      <point x="403" y="587" type="line"/>
      <point x="292" y="422" type="line" smooth="yes"/>
      <point x="218" y="311"/>
      <point x="167" y="161"/>
      <point x="167" y="30" type="curve" smooth="yes"/>
      <point x="167" y="18"/>
      <point x="167" y="-16"/>
      <point x="203" y="-16" type="curve" smooth="yes"/>
      <point x="239" y="-16"/>
      <point x="239" y="18"/>
      <point x="239" y="31" type="curve" smooth="yes"/>
      <point x="239" y="77" type="line" smooth="yes"/>
      <point x="239" y="241"/>
      <point x="267" y="349"/>
      <point x="313" y="418" type="curve" smooth="yes"/>
    </contour>
  </outline>
</glyph>
<glyph name="semicolon" format="2">
  <advance width="249"/>
  <unicode hex="003B"/>
  <outline>
    <contour>
      <point x="166" y="389" type="curve" smooth="yes"/>
      <point x="166" y="414"/>
      <point x="146" y="430"/>
      <point x="125" y="430" type="curve" smooth="yes"/>
      <point x="105" y="430"/>
      <point x="84" y="414"/>
      <point x="84" y="389" type="curve" smooth="yes"/>
      <point x="84" y="364"/>
      <point x="104" y="348"/>
      <point x="125" y="348" type="curve" smooth="yes"/>
      <point x="145" y="348"/>
      <point x="166" y="364"/>
    </contour>
    <contour>
      <point x="153" y="-11" type="line" smooth="yes"/>
      <point x="153" y="-75"/>
      <point x="133" y="-127"/>
      <point x="99" y="-175" type="curve"/>
      <point x="93" y="-182"/>
      <point x="93" y="-184"/>
      <point x="93" y="-185" type="curve" smooth="yes"/>
      <point x="93" y="-190"/>
      <point x="97" y="-194"/>
      <point x="101" y="-194" type="curve" smooth="yes"/>
      <point x="106" y="-194"/>
      <point x="169" y="-125"/>
      <point x="169" y="-9" type="curve" smooth="yes"/>
      <point x="169" y="30"/>
      <point x="166" y="82"/>
      <point x="125" y="82" type="curve" smooth="yes"/>
      <point x="103" y="82"/>
      <point x="84" y="67"/>
      <point x="84" y="41" type="curve" smooth="yes"/>
      <point x="84" y="15"/>
      <point x="103" y="0"/>
      <point x="125" y="0" type="curve" smooth="yes"/>
      <point x="135" y="0"/>
      <point x="146" y="3"/>
      <point x="153" y="10" type="curve"/>
    </contour>
  </outline>
</glyph>
<glyph name="question" format="2">
  <advance width="432"/>
  <unicode hex="003F"/>
  <outline>
    <contour>
      <point x="211" y="225" type="line" smooth="yes"/>
      <point x="211" y="319"/>
      <point x="259" y="402"/>
      <point x="331" y="459" type="curve" smooth="yes"/>
      <point x="350" y="473"/>
      <point x="385" y="501"/>
      <point x="385" y="564" type="curve" smooth="yes"/>
      <point x="385" y="645"/>
      <point x="324" y="702"/>
      <point x="206" y="702" type="curve" smooth="yes"/>
      <point x="106" y="702"/>
      <point x="46" y="633"/>
      <point x="46" y="567" type="curve" smooth="yes"/>
      <point x="46" y="528"/>
      <point x="79" y="528"/>
      <point x="82" y="528" type="curve" smooth="yes"/>
      <point x="93" y="528"/>
      <point x="118" y="535"/>
      <point x="118" y="564" type="curve" smooth="yes"/>
      <point x="118" y="589"/>
      <point x="99" y="600"/>
      <point x="82" y="600" type="curve" smooth="yes"/>
      <point x="78" y="600"/>
      <point x="73" y="599"/>
      <point x="70" y="598" type="curve"/>
      <point x="91" y="661"/>
      <point x="151" y="686"/>
      <point x="204" y="686" type="curve" smooth="yes"/>
      <point x="320" y="686"/>
      <point x="321" y="606"/>
      <point x="321" y="569" type="curve" smooth="yes"/>
      <point x="321" y="508"/>
      <point x="302" y="487"/>
      <point x="283" y="467" type="curve" smooth="yes"/>
      <point x="217" y="396"/>
      <point x="193" y="302"/>
      <point x="193" y="229" type="curve" smooth="yes"/>
      <point x="193" y="190" type="line" smooth="yes"/>
      <point x="193" y="173"/>
      <point x="193" y="169"/>
      <point x="202" y="169" type="curve" smooth="yes"/>
      <point x="211" y="169"/>
      <point x="211" y="173"/>
      <point x="211" y="190" type="curve" smooth="yes"/>
    </contour>
    <contour>
      <point x="243" y="41" type="curve" smooth="yes"/>
      <point x="243" y="63"/>
      <point x="225" y="82"/>
      <point x="202" y="82" type="curve" smooth="yes"/>
      <point x="180" y="82"/>
      <point x="161" y="64"/>
      <point x="161" y="41" type="curve" smooth="yes"/>
      <point x="161" y="19"/>
      <point x="179" y="0"/>
      <point x="202" y="0" type="curve" smooth="yes"/>
      <point x="224" y="0"/>
      <point x="243" y="18"/>
    </contour>
  </outline>
</glyph>
<glyph name="B" format="2">
  <advance width="654"/>
  <unicode hex="0042"/>
  <outline>
    <contour>
      <point x="132" y="71" type="line" smooth="yes"/>
      <point x="132" y="26"/>
      <point x="121" y="26"/>
      <point x="52" y="26" type="curve"/>
      <point x="52" y="26" type="line"/>
      <point x="52" y="0" type="line"/>
      <point x="396" y="0" type="line" smooth="yes"/>
      <point x="524" y="0"/>
      <point x="607" y="91"/>
      <point x="607" y="182" type="curve" smooth="yes"/>
      <point x="607" y="272"/>
      <point x="525" y="349"/>
      <point x="418" y="356" type="curve"/>
      <point x="514" y="375"/>
      <point x="581" y="439"/>
      <point x="581" y="515" type="curve" smooth="yes"/>
      <point x="581" y="598"/>
      <point x="499" y="683"/>
      <point x="370" y="683" type="curve" smooth="yes"/>
      <point x="52" y="683" type="line"/>
      <point x="52" y="657" type="line"/>
      <point x="52" y="657" type="line"/>
      <point x="121" y="657"/>
      <point x="132" y="657"/>
      <point x="132" y="612" type="curve" smooth="yes"/>
    </contour>
    <contour>
      <point x="195" y="363" type="line"/>
      <point x="195" y="618" type="line" smooth="yes"/>
      <point x="195" y="652"/>
      <point x="197" y="657"/>
      <point x="237" y="657" type="curve" smooth="yes"/>
      <point x="365" y="657" type="line" smooth="yes"/>
      <point x="464" y="657"/>
      <point x="508" y="577"/>
      <point x="508" y="515" type="curve" smooth="yes"/>
      <point x="508" y="439"/>
      <point x="447" y="363"/>
      <point x="339" y="363" type="curve" smooth="yes"/>
    </contour>
    <contour>
      <point x="237" y="26" type="line" smooth="yes"/>
      <point x="197" y="26"/>
      <point x="195" y="31"/>
      <point x="195" y="65" type="curve" smooth="yes"/>
      <point x="195" y="347" type="line"/>
      <point x="380" y="347" type="line" smooth="yes"/>
      <point x="483" y="347"/>
      <point x="533" y="256"/>
      <point x="533" y="183" type="curve" smooth="yes"/>
      <point x="533" y="110"/>
      <point x="476" y="26"/>
      <point x="367" y="26" type="curve" smooth="yes"/>
    </contour>
  </outline>
</glyph>
<glyph name="C" format="2">
  <advance width="667"/>
  <unicode hex="0043"/>
  <outline>
    <contour>
      <point x="621" y="679" type="line" smooth="yes"/>
      <point x="621" y="697"/>
      <point x="620" y="698"/>
      <point x="614" y="698" type="curve" smooth="yes"/>
      <point x="610" y="698"/>
      <point x="609" y="697"/>
      <point x="602" y="685" type="curve" smooth="yes"/>
      <point x="558" y="601" type="line"/>
      <point x="509" y="663"/>
      <point x="449" y="699"/>
      <point x="372" y="699" type="curve" smooth="yes"/>
      <point x="201" y="699"/>
      <point x="46" y="548"/>
      <point x="46" y="342" type="curve" smooth="yes"/>
      <point x="46" y="134"/>
      <point x="201" y="-16"/>
      <point x="373" y="-16" type="curve" smooth="yes"/>
      <point x="526" y="-16"/>
      <point x="621" y="119"/>
      <point x="621" y="234" type="curve" smooth="yes"/>
      <point x="621" y="244"/>
      <point x="621" y="248"/>
      <point x="612" y="248" type="curve" smooth="yes"/>
      <point x="604" y="248"/>
      <point x="604" y="245"/>
      <point x="603" y="236" type="curve"/>
      <point x="595" y="96"/>
      <point x="495" y="10"/>
      <point x="387" y="10" type="curve" smooth="yes"/>
      <point x="285" y="10"/>
      <point x="122" y="82"/>
      <point x="122" y="342" type="curve" smooth="yes"/>
      <point x="122" y="603"/>
      <point x="288" y="673"/>
      <point x="385" y="673" type="curve" smooth="yes"/>
      <point x="498" y="673"/>
      <point x="580" y="575"/>
      <point x="599" y="436" type="curve" smooth="yes"/>
      <point x="601" y="424"/>
      <point x="601" y="422"/>
      <point x="610" y="422" type="curve" smooth="yes"/>
      <point x="621" y="422"/>
      <point x="621" y="424"/>
      <point x="621" y="442" type="curve" smooth="yes"/>
    </contour>
  </outline>
</glyph>
<glyph name="F" format="2">
  <advance width="602"/>
  <unicode hex="0046"/>
  <outline>
    <contour>
      <point x="131" y="71" type="line" smooth="yes"/>
      <point x="131" y="26"/>
      <point x="120" y="26"/>
      <point x="51" y="26" type="curve"/>
      <point x="51" y="26" type="line"/>
      <point x="51" y="0" type="line"/>
      <point x="80" y="2"/>
      <point x="136" y="2"/>
      <point x="167" y="2" type="curve" smooth="yes"/>
      <point x="208" y="2"/>
      <point x="256" y="2"/>
      <point x="297" y="0" type="curve"/>
      <point x="297" y="26" type="line"/>
      <point x="275" y="26" type="line"/>
      <point x="199" y="26"/>
      <point x="197" y="36"/>
      <point x="197" y="72" type="curve" smooth="yes"/>
      <point x="197" y="328" type="line"/>
      <point x="287" y="328" type="line" smooth="yes"/>
      <point x="380" y="328"/>
      <point x="389" y="295"/>
      <point x="389" y="211" type="curve"/>
      <point x="407" y="211" type="line"/>
      <point x="407" y="471" type="line"/>
      <point x="389" y="471" type="line"/>
      <point x="389" y="387"/>
      <point x="380" y="354"/>
      <point x="287" y="354" type="curve" smooth="yes"/>
      <point x="197" y="354" type="line"/>
      <point x="197" y="616" type="line" smooth="yes"/>
      <point x="197" y="650"/>
      <point x="199" y="655"/>
      <point x="239" y="655" type="curve" smooth="yes"/>
      <point x="368" y="655" type="line" smooth="yes"/>
      <point x="519" y="655"/>
      <point x="536" y="593"/>
      <point x="550" y="460" type="curve"/>
      <point x="568" y="460" type="line"/>
      <point x="544" y="681" type="line"/>
      <point x="51" y="681" type="line"/>
      <point x="51" y="655" type="line"/>
      <point x="51" y="655" type="line"/>
      <point x="120" y="655"/>
      <point x="131" y="655"/>
      <point x="131" y="610" type="curve" smooth="yes"/>
    </contour>
  </outline>
</glyph>
<glyph name="H" format="2">
  <advance width="693"/>
  <unicode hex="0048"/>
  <outline>
    <contour>
      <point x="51" y="0" type="line"/>
      <point x="80" y="2"/>
      <point x="133" y="2"/>
      <point x="164" y="2" type="curve" smooth="yes"/>
      <point x="195" y="2"/>
      <point x="248" y="2"/>
      <point x="277" y="0" type="curve"/>
      <point x="277" y="26" type="line"/>
      <point x="277" y="26" type="line"/>
      <point x="208" y="26"/>
      <point x="197" y="26"/>
      <point x="197" y="71" type="curve" smooth="yes"/>
      <point x="197" y="342" type="line"/>
      <point x="495" y="342" type="line"/>
      <point x="495" y="71" type="line" smooth="yes"/>
      <point x="495" y="26"/>
      <point x="484" y="26"/>
      <point x="415" y="26" type="curve"/>
      <point x="415" y="26" type="line"/>
      <point x="415" y="0" type="line"/>
      <point x="444" y="2"/>
      <point x="497" y="2"/>
      <point x="528" y="2" type="curve" smooth="yes"/>
      <point x="559" y="2"/>
      <point x="612" y="2"/>
      <point x="641" y="0" type="curve"/>
      <point x="641" y="26" type="line"/>
      <point x="641" y="26" type="line"/>
      <point x="572" y="26"/>
      <point x="561" y="26"/>
      <point x="561" y="71" type="curve" smooth="yes"/>
      <point x="561" y="612" type="line" smooth="yes"/>
      <point x="561" y="657"/>
      <point x="572" y="657"/>
      <point x="641" y="657" type="curve"/>
      <point x="641" y="657" type="line"/>
      <point x="641" y="683" type="line"/>
      <point x="612" y="681"/>
      <point x="559" y="681"/>
      <point x="528" y="681" type="curve" smooth="yes"/>
      <point x="497" y="681"/>
      <point x="444" y="681"/>
      <point x="415" y="683" type="curve"/>
      <point x="415" y="657" type="line"/>
      <point x="415" y="657" type="line"/>
      <point x="484" y="657"/>
      <point x="495" y="657"/>
      <point x="495" y="612" type="curve" smooth="yes"/>
      <point x="495" y="368" type="line"/>
      <point x="197" y="368" type="line"/>
      <point x="197" y="612" type="line" smooth="yes"/>
      <point x="197" y="657"/>
      <point x="208" y="657"/>
      <point x="277" y="657" type="curve"/>
      <point x="277" y="657" type="line"/>
      <point x="277" y="683" type="line"/>
      <point x="248" y="681"/>
      <point x="195" y="681"/>
      <point x="164" y="681" type="curve" smooth="yes"/>
      <point x="133" y="681"/>
      <point x="80" y="681"/>
      <point x="51" y="683" type="curve"/>
      <point x="51" y="657" type="line"/>
      <point x="51" y="657" type="line"/>
      <point x="120" y="657"/>
      <point x="131" y="657"/>
      <point x="131" y="612" type="curve" smooth="yes"/>
      <point x="131" y="71" type="line" smooth="yes"/>
      <point x="131" y="26"/>
      <point x="120" y="26"/>
      <point x="51" y="26" type="curve"/>
      <point x="51" y="26" type="line"/>
    </contour>
  </outline>
</glyph>
<glyph name="I" format="2">
  <advance width="327"/>
  <unicode hex="0049"/>
  <outline>
    <contour>
      <point x="47" y="0" type="line"/>
      <point x="79" y="2"/>
      <point x="130" y="2"/>
      <point x="164" y="2" type="curve" smooth="yes"/>
      <point x="198" y="2"/>
      <point x="249" y="2"/>
      <point x="281" y="0" type="curve"/>
      <point x="281" y="26" type="line"/>
      <point x="281" y="26" type="line"/>
      <point x="209" y="26"/>
      <point x="197" y="26"/>
      <point x="197" y="71" type="curve" smooth="yes"/>
      <point x="197" y="612" type="line" smooth="yes"/>
      <point x="197" y="657"/>
      <point x="209" y="657"/>
      <point x="281" y="657" type="curve"/>
      <point x="281" y="657" type="line"/>
      <point x="281" y="683" type="line"/>
      <point x="249" y="681"/>
      <point x="198" y="681"/>
      <point x="164" y="681" type="curve" smooth="yes"/>
      <point x="130" y="681"/>
      <point x="79" y="681"/>
      <point x="47" y="683" type="curve"/>
      <point x="47" y="657" type="line"/>
      <point x="47" y="657" type="line"/>
      <point x="119" y="657"/>
      <point x="131" y="657"/>
      <point x="131" y="612" type="curve" smooth="yes"/>
      <point x="131" y="71" type="line" smooth="yes"/>
      <point x="131" y="26"/>
      <point x="119" y="26"/>
      <point x="47" y="26" type="curve"/>
      <point x="47" y="26" type="line"/>
    </contour>
  </outline>
</glyph>
<glyph name="J" format="2">
  <advance width="471"/>
  <unicode hex="004A"/>
  <outline>
    <contour>
      <point x="359" y="616" type="line" smooth="yes"/>
      <point x="359" y="655"/>
      <point x="370" y="657"/>
      <point x="419" y="657" type="curve"/>
      <point x="419" y="657" type="line"/>
      <point x="419" y="683" type="line"/>
      <point x="417" y="683"/>
      <point x="346" y="681"/>
      <point x="321" y="681" type="curve" smooth="yes"/>
      <point x="279" y="681"/>
      <point x="233" y="681"/>
      <point x="191" y="683" type="curve"/>
      <point x="191" y="657" type="line"/>
      <point x="215" y="657" type="line" smooth="yes"/>
      <point x="293" y="657"/>
      <point x="295" y="646"/>
      <point x="295" y="610" type="curve" smooth="yes"/>
      <point x="295" y="147" type="line" smooth="yes"/>
      <point x="295" y="55"/>
      <point x="245" y="0"/>
      <point x="194" y="0" type="curve" smooth="yes"/>
      <point x="168" y="0"/>
      <point x="108" y="12"/>
      <point x="82" y="73" type="curve"/>
      <point x="104" y="66"/>
      <point x="138" y="78"/>
      <point x="138" y="114" type="curve" smooth="yes"/>
      <point x="138" y="138"/>
      <point x="121" y="156"/>
      <point x="96" y="156" type="curve" smooth="yes"/>
      <point x="72" y="156"/>
      <point x="53" y="141"/>
      <point x="53" y="112" type="curve" smooth="yes"/>
      <point x="53" y="45"/>
      <point x="114" y="-16"/>
      <point x="196" y="-16" type="curve" smooth="yes"/>
      <point x="283" y="-16"/>
      <point x="359" y="54"/>
      <point x="359" y="143" type="curve" smooth="yes"/>
    </contour>
  </outline>
</glyph>
<glyph name="M" format="2">
  <advance width="850"/>
  <unicode hex="004D"/>
  <outline>
    <contour>
      <point x="133" y="98" type="line" smooth="yes"/>
      <point x="133" y="73"/>
      <point x="133" y="26"/>
      <point x="53" y="26" type="curve"/>
      <point x="53" y="0" type="line"/>
      <point x="76" y="2"/>
      <point x="118" y="2"/>
      <point x="143" y="2" type="curve" smooth="yes"/>
      <point x="168" y="2"/>
      <point x="210" y="2"/>
      <point x="233" y="0" type="curve"/>
      <point x="233" y="26" type="line"/>
      <point x="153" y="26"/>
      <point x="153" y="73"/>
      <point x="153" y="98" type="curve" smooth="yes"/>
      <point x="153" y="653" type="line"/>
      <point x="154" y="653" type="line"/>
      <point x="389" y="16" type="line" smooth="yes"/>
      <point x="393" y="6"/>
      <point x="395" y="0"/>
      <point x="403" y="0" type="curve" smooth="yes"/>
      <point x="411" y="0"/>
      <point x="413" y="6"/>
      <point x="417" y="16" type="curve" smooth="yes"/>
      <point x="654" y="658" type="line"/>
      <point x="655" y="658" type="line"/>
      <point x="655" y="71" type="line" smooth="yes"/>
      <point x="655" y="26"/>
      <point x="644" y="26"/>
      <point x="575" y="26" type="curve"/>
      <point x="575" y="26" type="line"/>
      <point x="575" y="0" type="line"/>
      <point x="602" y="2"/>
      <point x="656" y="2"/>
      <point x="685" y="2" type="curve" smooth="yes"/>
      <point x="714" y="2"/>
      <point x="769" y="2"/>
      <point x="796" y="0" type="curve"/>
      <point x="796" y="26" type="line"/>
      <point x="796" y="26" type="line"/>
      <point x="727" y="26"/>
      <point x="716" y="26"/>
      <point x="716" y="71" type="curve" smooth="yes"/>
      <point x="716" y="612" type="line" smooth="yes"/>
      <point x="716" y="657"/>
      <point x="727" y="657"/>
      <point x="796" y="657" type="curve"/>
      <point x="796" y="657" type="line"/>
      <point x="796" y="683" type="line"/>
      <point x="669" y="683" type="line" smooth="yes"/>
      <point x="648" y="683"/>
      <point x="647" y="682"/>
      <point x="641" y="667" type="curve" smooth="yes"/>
      <point x="425" y="81" type="line"/>
      <point x="209" y="667" type="line" smooth="yes"/>
      <point x="203" y="682"/>
      <point x="202" y="683"/>
      <point x="181" y="683" type="curve" smooth="yes"/>
      <point x="53" y="683" type="line"/>
      <point x="53" y="657" type="line"/>
      <point x="53" y="657" type="line"/>
      <point x="122" y="657"/>
      <point x="133" y="657"/>
      <point x="133" y="612" type="curve" smooth="yes"/>
    </contour>
  </outline>
</glyph>
<glyph name="S" format="2">
  <advance width="510"/>
  <unicode hex="0053"/>
  <outline>
    <contour>
      <point x="438" y="679" type="line" smooth="yes"/>
      <point x="438" y="697"/>
      <point x="437" y="698"/>
      <point x="431" y="698" type="curve" smooth="yes"/>
      <point x="425" y="698"/>
      <point x="423" y="694"/>
      <point x="419" y="685" type="curve" smooth="yes"/>
      <point x="389" y="619" type="line"/>
      <point x="351" y="674"/>
      <point x="293" y="699"/>
      <point x="230" y="699" type="curve" smooth="yes"/>
      <point x="128" y="699"/>
      <point x="46" y="618"/>
      <point x="46" y="516" type="curve" smooth="yes"/>
      <point x="46" y="485"/>
      <point x="53" y="441"/>
      <point x="87" y="399" type="curve" smooth="yes"/>
      <point x="124" y="353"/>
      <point x="159" y="345"/>
      <point x="239" y="324" type="curve" smooth="yes"/>
      <point x="269" y="316"/>
      <point x="319" y="303"/>
      <point x="329" y="299" type="curve" smooth="yes"/>
      <point x="386" y="275"/>
      <point x="416" y="215"/>
      <point x="416" y="159" type="curve" smooth="yes"/>
      <point x="416" y="87"/>
      <point x="365" y="10"/>
      <point x="278" y="10" type="curve" smooth="yes"/>
      <point x="171" y="10"/>
      <point x="71" y="70"/>
      <point x="64" y="210" type="curve" smooth="yes"/>
      <point x="63" y="226"/>
      <point x="62" y="227"/>
      <point x="55" y="227" type="curve" smooth="yes"/>
      <point x="47" y="227"/>
      <point x="46" y="226"/>
      <point x="46" y="206" type="curve" smooth="yes"/>
      <point x="46" y="4" type="line" smooth="yes"/>
      <point x="46" y="-14"/>
      <point x="47" y="-15"/>
      <point x="53" y="-15" type="curve" smooth="yes"/>
      <point x="60" y="-15"/>
      <point x="62" y="-10"/>
      <point x="76" y="21" type="curve"/>
      <point x="77" y="24"/>
      <point x="77" y="26"/>
      <point x="96" y="64" type="curve"/>
      <point x="146" y="-2"/>
      <point x="230" y="-16"/>
      <point x="278" y="-16" type="curve" smooth="yes"/>
      <point x="387" y="-16"/>
      <point x="464" y="75"/>
      <point x="464" y="181" type="curve" smooth="yes"/>
      <point x="464" y="233"/>
      <point x="445" y="273"/>
      <point x="434" y="291" type="curve" smooth="yes"/>
      <point x="392" y="355"/>
      <point x="347" y="367"/>
      <point x="299" y="379" type="curve"/>
      <point x="292" y="382"/>
      <point x="290" y="382"/>
      <point x="234" y="396" type="curve" smooth="yes"/>
      <point x="180" y="410"/>
      <point x="157" y="417"/>
      <point x="132" y="444" type="curve" smooth="yes"/>
      <point x="104" y="475"/>
      <point x="94" y="507"/>
      <point x="94" y="539" type="curve" smooth="yes"/>
      <point x="94" y="604"/>
      <point x="146" y="675"/>
      <point x="231" y="675" type="curve" smooth="yes"/>
      <point x="337" y="675"/>
      <point x="403" y="600"/>
      <point x="418" y="475" type="curve" smooth="yes"/>
      <point x="421" y="457"/>
      <point x="422" y="456"/>
      <point x="429" y="456" type="curve" smooth="yes"/>
      <point x="438" y="456"/>
      <point x="438" y="459"/>
      <point x="438" y="476" type="curve" smooth="yes"/>
    </contour>
  </outline>
</glyph>
<glyph name="V" format="2">
  <advance width="693"/>
  <unicode hex="0056"/>
  <outline>
    <contour>
      <point x="590" y="591" type="line" smooth="yes"/>
      <point x="599" y="613"/>
      <point x="615" y="656"/>
      <point x="682" y="657" type="curve"/>
      <point x="682" y="683" type="line"/>
      <point x="659" y="681"/>
      <point x="633" y="681"/>
      <point x="608" y="681" type="curve" smooth="yes"/>
      <point x="584" y="681"/>
      <point x="543" y="681"/>
      <point x="520" y="683" type="curve"/>
      <point x="520" y="657" type="line"/>
      <point x="570" y="654"/>
      <point x="572" y="619"/>
      <point x="572" y="613" type="curve" smooth="yes"/>
      <point x="572" y="602"/>
      <point x="569" y="595"/>
      <point x="566" y="587" type="curve" smooth="yes"/>
      <point x="369" y="74" type="line"/>
      <point x="163" y="613" type="line" smooth="yes"/>
      <point x="160" y="620"/>
      <point x="158" y="625"/>
      <point x="158" y="630" type="curve" smooth="yes"/>
      <point x="158" y="657"/>
      <point x="198" y="657"/>
      <point x="219" y="657" type="curve"/>
      <point x="219" y="683" type="line"/>
      <point x="187" y="681"/>
      <point x="140" y="681"/>
      <point x="107" y="681" type="curve" smooth="yes"/>
      <point x="81" y="681"/>
      <point x="34" y="681"/>
      <point x="10" y="683" type="curve"/>
      <point x="10" y="657" type="line"/>
      <point x="68" y="657"/>
      <point x="79" y="653"/>
      <point x="91" y="621" type="curve" smooth="yes"/>
      <point x="329" y="0" type="line" smooth="yes"/>
      <point x="334" y="-14"/>
      <point x="335" y="-16"/>
      <point x="346" y="-16" type="curve" smooth="yes"/>
      <point x="357" y="-16"/>
      <point x="358" y="-14"/>
      <point x="363" y="0" type="curve" smooth="yes"/>
    </contour>
  </outline>
</glyph>
<glyph name="Y" format="2">
  <advance width="693"/>
  <unicode hex="0059"/>
  <outline>
    <contour>
      <point x="234" y="0" type="line"/>
      <point x="263" y="2"/>
      <point x="315" y="2"/>
      <point x="346" y="2" type="curve" smooth="yes"/>
      <point x="377" y="2"/>
      <point x="430" y="2"/>
      <point x="459" y="0" type="curve"/>
      <point x="459" y="26" type="line"/>
      <point x="459" y="26" type="line"/>
      <point x="387" y="26"/>
      <point x="378" y="26"/>
      <point x="378" y="75" type="curve" smooth="yes"/>
      <point x="378" y="273" type="line"/>
      <point x="579" y="594" type="line" smooth="yes"/>
      <point x="618" y="656"/>
      <point x="672" y="657"/>
      <point x="690" y="657" type="curve"/>
      <point x="690" y="683" type="line"/>
      <point x="667" y="681"/>
      <point x="641" y="681"/>
      <point x="616" y="681" type="curve" smooth="yes"/>
      <point x="591" y="681"/>
      <point x="551" y="681"/>
      <point x="527" y="683" type="curve"/>
      <point x="527" y="657" type="line"/>
      <point x="552" y="656"/>
      <point x="565" y="643"/>
      <point x="565" y="624" type="curve" smooth="yes"/>
      <point x="565" y="612"/>
      <point x="560" y="604"/>
      <point x="552" y="591" type="curve" smooth="yes"/>
      <point x="372" y="302" type="line"/>
      <point x="175" y="617" type="line" smooth="yes"/>
      <point x="168" y="629"/>
      <point x="167" y="630"/>
      <point x="167" y="637" type="curve" smooth="yes"/>
      <point x="167" y="657"/>
      <point x="202" y="657"/>
      <point x="216" y="657" type="curve"/>
      <point x="216" y="683" type="line"/>
      <point x="184" y="681"/>
      <point x="135" y="681"/>
      <point x="102" y="681" type="curve" smooth="yes"/>
      <point x="76" y="681"/>
      <point x="26" y="681"/>
      <point x="2" y="683" type="curve"/>
      <point x="2" y="657" type="line"/>
      <point x="2" y="657" type="line"/>
      <point x="59" y="657"/>
      <point x="75" y="654"/>
      <point x="93" y="625" type="curve" smooth="yes"/>
      <point x="314" y="273" type="line"/>
      <point x="314" y="71" type="line" smooth="yes"/>
      <point x="314" y="26"/>
      <point x="303" y="26"/>
      <point x="234" y="26" type="curve"/>
      <point x="234" y="26" type="line"/>
    </contour>
  </outline>
</glyph>
<glyph name="grave" format="2">
  <advance width="458"/>
  <unicode hex="0060"/>
  <outline>
    <contour>
      <point x="258" y="512" type="line"/>
      <point x="261" y="515"/>
      <point x="268" y="523"/>
      <point x="270" y="524" type="curve"/>
      <point x="157" y="669" type="line" smooth="yes"/>
      <point x="136" y="695"/>
      <point x="135" y="696"/>
      <point x="123" y="696" type="curve" smooth="yes"/>
      <point x="109" y="696"/>
      <point x="96" y="683"/>
      <point x="96" y="669" type="curve" smooth="yes"/>
      <point x="96" y="659"/>
      <point x="102" y="653"/>
      <point x="103" y="651" type="curve"/>
      <point x="105" y="650"/>
      <point x="147" y="611"/>
      <point x="182" y="579" type="curve" smooth="yes"/>
    </contour>
  </outline>
</glyph>
<glyph name="a" format="2">
  <advance width="458"/>
  <unicode hex="0061"/>
  <outline>
    <contour>
      <point x="360" y="259" type="line" smooth="yes"/>
      <point x="360" y="325"/>
      <point x="360" y="360"/>
      <point x="318" y="399" type="curve" smooth="yes"/>
      <point x="281" y="432"/>
      <point x="238" y="442"/>
      <point x="204" y="442" type="curve" smooth="yes"/>
      <point x="125" y="442"/>
      <point x="68" y="380"/>
      <point x="68" y="314" type="curve" smooth="yes"/>
      <point x="68" y="277"/>
      <point x="98" y="275"/>
      <point x="104" y="275" type="curve" smooth="yes"/>
      <point x="117" y="275"/>
      <point x="140" y="283"/>
      <point x="140" y="311" type="curve" smooth="yes"/>
      <point x="140" y="336"/>
      <point x="121" y="347"/>
      <point x="104" y="347" type="curve" smooth="yes"/>
      <point x="100" y="347"/>
      <point x="95" y="346"/>
      <point x="92" y="345" type="curve"/>
      <point x="113" y="408"/>
      <point x="167" y="426"/>
      <point x="202" y="426" type="curve" smooth="yes"/>
      <point x="252" y="426"/>
      <point x="307" y="382"/>
      <point x="307" y="298" type="curve" smooth="yes"/>
      <point x="307" y="254" type="line"/>
      <point x="248" y="252"/>
      <point x="177" y="244"/>
      <point x="121" y="214" type="curve" smooth="yes"/>
      <point x="58" y="179"/>
      <point x="40" y="129"/>
      <point x="40" y="91" type="curve" smooth="yes"/>
      <point x="40" y="14"/>
      <point x="130" y="-8"/>
      <point x="183" y="-8" type="curve" smooth="yes"/>
      <point x="238" y="-8"/>
      <point x="289" y="23"/>
      <point x="311" y="80" type="curve"/>
      <point x="313" y="36"/>
      <point x="341" y="-4"/>
      <point x="385" y="-4" type="curve" smooth="yes"/>
      <point x="406" y="-4"/>
      <point x="459" y="10"/>
      <point x="459" y="89" type="curve" smooth="yes"/>
      <point x="459" y="145" type="line"/>
      <point x="441" y="145" type="line"/>
      <point x="441" y="88" type="line" smooth="yes"/>
      <point x="441" y="27"/>
      <point x="414" y="19"/>
      <point x="401" y="19" type="curve" smooth="yes"/>
      <point x="360" y="19"/>
      <point x="360" y="71"/>
      <point x="360" y="115" type="curve" smooth="yes"/>
    </contour>
    <contour>
      <point x="307" y="139" type="line" smooth="yes"/>
      <point x="307" y="52"/>
      <point x="245" y="8"/>
      <point x="190" y="8" type="curve" smooth="yes"/>
      <point x="140" y="8"/>
      <point x="101" y="45"/>
      <point x="101" y="91" type="curve" smooth="yes"/>
      <point x="101" y="121"/>
      <point x="114" y="174"/>
      <point x="172" y="206" type="curve" smooth="yes"/>
      <point x="220" y="233"/>
      <point x="275" y="237"/>
      <point x="307" y="239" type="curve"/>
    </contour>
  </outline>
</glyph>
<glyph name="b" format="2">
  <advance width="510"/>
  <unicode hex="0062"/>
  <outline>
    <contour>
      <point x="150" y="694" type="line"/>
      <point x="31" y="683" type="line"/>
      <point x="31" y="657" type="line"/>
      <point x="90" y="657"/>
      <point x="99" y="651"/>
      <point x="99" y="603" type="curve" smooth="yes"/>
      <point x="99" y="0" type="line"/>
      <point x="117" y="0" type="line"/>
      <point x="146" y="71" type="line"/>
      <point x="175" y="24"/>
      <point x="218" y="-8"/>
      <point x="276" y="-8" type="curve" smooth="yes"/>
      <point x="376" y="-8"/>
      <point x="477" y="80"/>
      <point x="477" y="216" type="curve" smooth="yes"/>
      <point x="477" y="344"/>
      <point x="387" y="438"/>
      <point x="286" y="438" type="curve" smooth="yes"/>
      <point x="224" y="438"/>
      <point x="180" y="405"/>
      <point x="150" y="366" type="curve"/>
    </contour>
    <contour>
      <point x="152" y="315" type="line" smooth="yes"/>
      <point x="152" y="333"/>
      <point x="152" y="336"/>
      <point x="166" y="357" type="curve" smooth="yes"/>
      <point x="205" y="417"/>
      <point x="261" y="422"/>
      <point x="280" y="422" type="curve" smooth="yes"/>
      <point x="310" y="422"/>
      <point x="413" y="406"/>
      <point x="413" y="217" type="curve" smooth="yes"/>
      <point x="413" y="19"/>
      <point x="295" y="8"/>
      <point x="271" y="8" type="curve" smooth="yes"/>
      <point x="240" y="8"/>
      <point x="195" y="20"/>
      <point x="163" y="78" type="curve" smooth="yes"/>
      <point x="152" y="97"/>
      <point x="152" y="99"/>
      <point x="152" y="117" type="curve" smooth="yes"/>
    </contour>
  </outline>
</glyph>
<glyph name="c" format="2">
  <advance width="406"/>
  <unicode hex="0063"/>
  <outline>
    <contour>
      <point x="349" y="350" type="curve"/>
      <point x="330" y="350"/>
      <point x="302" y="350"/>
      <point x="302" y="315" type="curve" smooth="yes"/>
      <point x="302" y="287"/>
      <point x="325" y="279"/>
      <point x="338" y="279" type="curve" smooth="yes"/>
      <point x="345" y="279"/>
      <point x="374" y="282"/>
      <point x="374" y="317" type="curve" smooth="yes"/>
      <point x="374" y="388"/>
      <point x="306" y="442"/>
      <point x="229" y="442" type="curve" smooth="yes"/>
      <point x="123" y="442"/>
      <point x="33" y="344"/>
      <point x="33" y="216" type="curve" smooth="yes"/>
      <point x="33" y="83"/>
      <point x="127" y="-8"/>
      <point x="229" y="-8" type="curve" smooth="yes"/>
      <point x="353" y="-8"/>
      <point x="384" y="107"/>
      <point x="384" y="118" type="curve" smooth="yes"/>
      <point x="384" y="122"/>
      <point x="383" y="125"/>
      <point x="376" y="125" type="curve" smooth="yes"/>
      <point x="369" y="125"/>
      <point x="368" y="124"/>
      <point x="364" y="111" type="curve" smooth="yes"/>
      <point x="338" y="30"/>
      <point x="281" y="10"/>
      <point x="238" y="10" type="curve" smooth="yes"/>
      <point x="174" y="10"/>
      <point x="97" y="69"/>
      <point x="97" y="217" type="curve" smooth="yes"/>
      <point x="97" y="369"/>
      <point x="171" y="424"/>
      <point x="230" y="424" type="curve" smooth="yes"/>
      <point x="269" y="424"/>
      <point x="327" y="405"/>
    </contour>
  </outline>
</glyph>
<glyph name="d" format="2">
  <advance width="510"/>
  <unicode hex="0064"/>
  <outline>
    <contour>
      <point x="292" y="683" type="line"/>
      <point x="292" y="657" type="line"/>
      <point x="351" y="657"/>
      <point x="360" y="651"/>
      <point x="360" y="603" type="curve" smooth="yes"/>
      <point x="360" y="369" type="line"/>
      <point x="356" y="374"/>
      <point x="315" y="438"/>
      <point x="234" y="438" type="curve" smooth="yes"/>
      <point x="132" y="438"/>
      <point x="33" y="347"/>
      <point x="33" y="215" type="curve" smooth="yes"/>
      <point x="33" y="84"/>
      <point x="126" y="-8"/>
      <point x="224" y="-8" type="curve" smooth="yes"/>
      <point x="309" y="-8"/>
      <point x="353" y="58"/>
      <point x="358" y="65" type="curve"/>
      <point x="358" y="-8" type="line"/>
      <point x="479" y="0" type="line"/>
      <point x="479" y="26" type="line"/>
      <point x="420" y="26"/>
      <point x="411" y="32"/>
      <point x="411" y="80" type="curve" smooth="yes"/>
      <point x="411" y="694" type="line"/>
    </contour>
    <contour>
      <point x="358" y="120" type="line" smooth="yes"/>
      <point x="358" y="90"/>
      <point x="340" y="63"/>
      <point x="317" y="43" type="curve" smooth="yes"/>
      <point x="283" y="13"/>
      <point x="249" y="8"/>
      <point x="230" y="8" type="curve" smooth="yes"/>
      <point x="201" y="8"/>
      <point x="97" y="23"/>
      <point x="97" y="214" type="curve" smooth="yes"/>
      <point x="97" y="410"/>
      <point x="213" y="422"/>
      <point x="239" y="422" type="curve" smooth="yes"/>
      <point x="285" y="422"/>
      <point x="322" y="396"/>
      <point x="345" y="360" type="curve" smooth="yes"/>
      <point x="358" y="339"/>
      <point x="358" y="336"/>
      <point x="358" y="318" type="curve" smooth="yes"/>
    </contour>
  </outline>
</glyph>
<glyph name="e" format="2">
  <advance width="406"/>
  <unicode hex="0065"/>
  <outline>
    <contour>
      <point x="381" y="235" type="line"/>
      <point x="385" y="239"/>
      <point x="385" y="241"/>
      <point x="385" y="251" type="curve" smooth="yes"/>
      <point x="385" y="353"/>
      <point x="331" y="442"/>
      <point x="217" y="442" type="curve" smooth="yes"/>
      <point x="111" y="442"/>
      <point x="27" y="341"/>
      <point x="27" y="218" type="curve" smooth="yes"/>
      <point x="27" y="88"/>
      <point x="122" y="-8"/>
      <point x="228" y="-8" type="curve" smooth="yes"/>
      <point x="340" y="-8"/>
      <point x="384" y="98"/>
      <point x="384" y="119" type="curve" smooth="yes"/>
      <point x="384" y="126"/>
      <point x="378" y="126"/>
      <point x="376" y="126" type="curve" smooth="yes"/>
      <point x="369" y="126"/>
      <point x="368" y="124"/>
      <point x="364" y="112" type="curve" smooth="yes"/>
      <point x="342" y="44"/>
      <point x="287" y="10"/>
      <point x="235" y="10" type="curve" smooth="yes"/>
      <point x="192" y="10"/>
      <point x="149" y="34"/>
      <point x="122" y="78" type="curve" smooth="yes"/>
      <point x="91" y="129"/>
      <point x="91" y="188"/>
      <point x="91" y="235" type="curve"/>
    </contour>
    <contour>
      <point x="92" y="250" type="line"/>
      <point x="99" y="394"/>
      <point x="176" y="426"/>
      <point x="216" y="426" type="curve" smooth="yes"/>
      <point x="284" y="426"/>
      <point x="330" y="362"/>
      <point x="331" y="250" type="curve"/>
    </contour>
  </outline>
</glyph>
<glyph name="h" format="2">
  <advance width="510"/>
  <unicode hex="0068"/>
  <outline>
    <contour>
      <point x="415" y="304" type="line" smooth="yes"/>
      <point x="415" y="355"/>
      <point x="405" y="438"/>
      <point x="287" y="438" type="curve" smooth="yes"/>
      <point x="205" y="438"/>
      <point x="165" y="372"/>
      <point x="153" y="339" type="curve"/>
      <point x="152" y="339" type="line"/>
      <point x="152" y="694" type="line"/>
      <point x="33" y="683" type="line"/>
      <point x="33" y="657" type="line"/>
      <point x="92" y="657"/>
      <point x="101" y="651"/>
      <point x="101" y="603" type="curve" smooth="yes"/>
      <point x="101" y="69" type="line" smooth="yes"/>
      <point x="101" y="31"/>
      <point x="97" y="26"/>
      <point x="33" y="26" type="curve"/>
      <point x="33" y="0" type="line"/>
      <point x="57" y="2"/>
      <point x="101" y="2"/>
      <point x="127" y="2" type="curve" smooth="yes"/>
      <point x="153" y="2"/>
      <point x="198" y="2"/>
      <point x="222" y="0" type="curve"/>
      <point x="222" y="26" type="line"/>
      <point x="158" y="26"/>
      <point x="154" y="30"/>
      <point x="154" y="69" type="curve" smooth="yes"/>
      <point x="154" y="261" type="line" smooth="yes"/>
      <point x="154" y="353"/>
      <point x="210" y="422"/>
      <point x="280" y="422" type="curve" smooth="yes"/>
      <point x="354" y="422"/>
      <point x="362" y="356"/>
      <point x="362" y="308" type="curve" smooth="yes"/>
      <point x="362" y="69" type="line" smooth="yes"/>
      <point x="362" y="31"/>
      <point x="358" y="26"/>
      <point x="294" y="26" type="curve"/>
      <point x="294" y="0" type="line"/>
      <point x="318" y="2"/>
      <point x="362" y="2"/>
      <point x="388" y="2" type="curve" smooth="yes"/>
      <point x="414" y="2"/>
      <point x="459" y="2"/>
      <point x="483" y="0" type="curve"/>
      <point x="483" y="26" type="line"/>
      <point x="419" y="26"/>
      <point x="415" y="30"/>
      <point x="415" y="69" type="curve" smooth="yes"/>
    </contour>
  </outline>
</glyph>
<glyph name="j" format="2">
  <advance width="275"/>
  <unicode hex="006A"/>
  <outline>
    <contour>
      <point x="182" y="616" type="curve" smooth="yes"/>
      <point x="182" y="638"/>
      <point x="164" y="657"/>
      <point x="141" y="657" type="curve" smooth="yes"/>
      <point x="119" y="657"/>
      <point x="100" y="639"/>
      <point x="100" y="616" type="curve" smooth="yes"/>
      <point x="100" y="594"/>
      <point x="118" y="575"/>
      <point x="141" y="575" type="curve" smooth="yes"/>
      <point x="163" y="575"/>
      <point x="182" y="593"/>
    </contour>
    <contour>
      <point x="57" y="427" type="line"/>
      <point x="57" y="401" type="line"/>
      <point x="123" y="401"/>
      <point x="131" y="394"/>
      <point x="131" y="346" type="curve" smooth="yes"/>
      <point x="131" y="-59" type="line" smooth="yes"/>
      <point x="131" y="-109"/>
      <point x="122" y="-187"/>
      <point x="63" y="-187" type="curve" smooth="yes"/>
      <point x="56" y="-187"/>
      <point x="29" y="-186"/>
      <point x="7" y="-172" type="curve"/>
      <point x="14" y="-171"/>
      <point x="39" y="-164"/>
      <point x="39" y="-136" type="curve" smooth="yes"/>
      <point x="39" y="-117"/>
      <point x="26" y="-100"/>
      <point x="3" y="-100" type="curve" smooth="yes"/>
      <point x="-19" y="-100"/>
      <point x="-33" y="-115"/>
      <point x="-33" y="-137" type="curve" smooth="yes"/>
      <point x="-33" y="-177"/>
      <point x="11" y="-203"/>
      <point x="62" y="-203" type="curve" smooth="yes"/>
      <point x="131" y="-203"/>
      <point x="182" y="-140"/>
      <point x="182" y="-55" type="curve" smooth="yes"/>
      <point x="182" y="438" type="line"/>
    </contour>
  </outline>
</glyph>
<glyph name="l" format="2">
  <advance width="249"/>
  <unicode hex="006C"/>
  <outline>
    <contour>
      <point x="153" y="694" type="line"/>
      <point x="34" y="683" type="line"/>
      <point x="34" y="657" type="line"/>
      <point x="93" y="657"/>
      <point x="102" y="651"/>
      <point x="102" y="603" type="curve" smooth="yes"/>
      <point x="102" y="69" type="line" smooth="yes"/>
      <point x="102" y="31"/>
      <point x="98" y="26"/>
      <point x="34" y="26" type="curve"/>
      <point x="34" y="0" type="line"/>
      <point x="58" y="2"/>
      <point x="102" y="2"/>
      <point x="127" y="2" type="curve" smooth="yes"/>
      <point x="153" y="2"/>
      <point x="197" y="2"/>
      <point x="221" y="0" type="curve"/>
      <point x="221" y="26" type="line"/>
      <point x="157" y="26"/>
      <point x="153" y="30"/>
      <point x="153" y="69" type="curve" smooth="yes"/>
    </contour>
  </outline>
</glyph>
<glyph name="n" format="2">
  <advance width="510"/>
  <unicode hex="006E"/>
  <outline>
    <contour>
      <point x="101" y="69" type="line" smooth="yes"/>
      <point x="101" y="31"/>
      <point x="97" y="26"/>
      <point x="33" y="26" type="curve"/>
      <point x="33" y="26" type="line"/>
      <point x="33" y="0" type="line"/>
      <point x="57" y="2"/>
      <point x="101" y="2"/>
      <point x="127" y="2" type="curve" smooth="yes"/>
      <point x="153" y="2"/>
      <point x="198" y="2"/>
      <point x="222" y="0" type="curve"/>
      <point x="222" y="26" type="line"/>
      <point x="222" y="26" type="line"/>
      <point x="158" y="26"/>
      <point x="154" y="30"/>
      <point x="154" y="69" type="curve" smooth="yes"/>
      <point x="154" y="261" type="line" smooth="yes"/>
      <point x="154" y="353"/>
      <point x="210" y="422"/>
      <point x="280" y="422" type="curve" smooth="yes"/>
      <point x="354" y="422"/>
      <point x="362" y="356"/>
      <point x="362" y="308" type="curve" smooth="yes"/>
      <point x="362" y="69" type="line" smooth="yes"/>
      <point x="362" y="31"/>
      <point x="358" y="26"/>
      <point x="294" y="26" type="curve"/>
      <point x="294" y="26" type="line"/>
      <point x="294" y="0" type="line"/>
      <point x="318" y="2"/>
      <point x="362" y="2"/>
      <point x="388" y="2" type="curve" smooth="yes"/>
      <point x="414" y="2"/>
      <point x="459" y="2"/>
      <point x="483" y="0" type="curve"/>
      <point x="483" y="26" type="line"/>
      <point x="483" y="26" type="line"/>
      <point x="419" y="26"/>
      <point x="415" y="30"/>
      <point x="415" y="69" type="curve" smooth="yes"/>
      <point x="415" y="304" type="line" smooth="yes"/>
      <point x="415" y="335"/>
      <point x="411" y="377"/>
      <point x="383" y="406" type="curve" smooth="yes"/>
      <point x="364" y="425"/>
      <point x="334" y="438"/>
      <point x="287" y="438" type="curve" smooth="yes"/>
      <point x="208" y="438"/>
      <point x="167" y="377"/>
      <point x="152" y="337" type="curve"/>
      <point x="151" y="337" type="line"/>
      <point x="151" y="438" type="line"/>
      <point x="33" y="427" type="line"/>
      <point x="33" y="401" type="line"/>
      <point x="92" y="401"/>
      <point x="101" y="395"/>
      <point x="101" y="347" type="curve" smooth="yes"/>
    </contour>
  </outline>
</glyph>
<glyph name="p" format="2">
  <advance width="510"/>
  <unicode hex="0070"/>
  <outline>
    <contour>
      <point x="220" y="-169" type="line"/>
      <point x="156" y="-169"/>
      <point x="152" y="-165"/>
      <point x="152" y="-126" type="curve" smooth="yes"/>
      <point x="152" y="61" type="line"/>
      <point x="181" y="19"/>
      <point x="223" y="-8"/>
      <point x="276" y="-8" type="curve" smooth="yes"/>
      <point x="376" y="-8"/>
      <point x="477" y="80"/>
      <point x="477" y="216" type="curve" smooth="yes"/>
      <point x="477" y="342"/>
      <point x="390" y="438"/>
      <point x="287" y="438" type="curve" smooth="yes"/>
      <point x="227" y="438"/>
      <point x="178" y="405"/>
      <point x="150" y="365" type="curve"/>
      <point x="150" y="438" type="line"/>
      <point x="31" y="427" type="line"/>
      <point x="31" y="401" type="line"/>
      <point x="90" y="401"/>
      <point x="99" y="395"/>
      <point x="99" y="347" type="curve" smooth="yes"/>
      <point x="99" y="-126" type="line" smooth="yes"/>
      <point x="99" y="-164"/>
      <point x="95" y="-169"/>
      <point x="31" y="-169" type="curve"/>
      <point x="31" y="-195" type="line"/>
      <point x="55" y="-193"/>
      <point x="99" y="-193"/>
      <point x="125" y="-193" type="curve" smooth="yes"/>
      <point x="151" y="-193"/>
      <point x="196" y="-193"/>
      <point x="220" y="-195" type="curve"/>
    </contour>
    <contour>
      <point x="152" y="314" type="line" smooth="yes"/>
      <point x="152" y="328"/>
      <point x="152" y="349"/>
      <point x="191" y="386" type="curve"/>
      <point x="196" y="390"/>
      <point x="230" y="420"/>
      <point x="280" y="420" type="curve" smooth="yes"/>
      <point x="353" y="420"/>
      <point x="413" y="329"/>
      <point x="413" y="215" type="curve" smooth="yes"/>
      <point x="413" y="101"/>
      <point x="349" y="8"/>
      <point x="270" y="8" type="curve" smooth="yes"/>
      <point x="234" y="8"/>
      <point x="195" y="25"/>
      <point x="165" y="72" type="curve" smooth="yes"/>
      <point x="152" y="94"/>
      <point x="152" y="100"/>
      <point x="152" y="116" type="curve" smooth="yes"/>
    </contour>
  </outline>
</glyph>
<glyph name="r" format="2">
  <advance width="354"/>
  <unicode hex="0072"/>
  <outline>
    <contour>
      <point x="99" y="69" type="line" smooth="yes"/>
      <point x="99" y="31"/>
      <point x="95" y="26"/>
      <point x="31" y="26" type="curve"/>
      <point x="31" y="26" type="line"/>
      <point x="31" y="0" type="line"/>
      <point x="55" y="2"/>
      <point x="101" y="2"/>
      <point x="127" y="2" type="curve" smooth="yes"/>
      <point x="156" y="2"/>
      <point x="207" y="2"/>
      <point x="234" y="0" type="curve"/>
      <point x="234" y="26" type="line"/>
      <point x="234" y="26" type="line"/>
      <point x="162" y="26"/>
      <point x="150" y="26"/>
      <point x="150" y="71" type="curve" smooth="yes"/>
      <point x="150" y="236" type="line" smooth="yes"/>
      <point x="150" y="332"/>
      <point x="191" y="422"/>
      <point x="266" y="422" type="curve" smooth="yes"/>
      <point x="273" y="422"/>
      <point x="280" y="421"/>
      <point x="287" y="418" type="curve"/>
      <point x="287" y="418" type="line"/>
      <point x="273" y="412"/>
      <point x="265" y="401"/>
      <point x="265" y="385" type="curve" smooth="yes"/>
      <point x="265" y="361"/>
      <point x="284" y="351"/>
      <point x="299" y="351" type="curve" smooth="yes"/>
      <point x="311" y="351"/>
      <point x="333" y="358"/>
      <point x="333" y="386" type="curve" smooth="yes"/>
      <point x="333" y="418"/>
      <point x="301" y="438"/>
      <point x="267" y="438" type="curve" smooth="yes"/>
      <point x="191" y="438"/>
      <point x="158" y="364"/>
      <point x="148" y="329" type="curve"/>
      <point x="147" y="329" type="line"/>
      <point x="147" y="438" type="line"/>
      <point x="31" y="427" type="line"/>
      <point x="31" y="401" type="line"/>
      <point x="90" y="401"/>
      <point x="99" y="395"/>
      <point x="99" y="347" type="curve" smooth="yes"/>
    </contour>
  </outline>
</glyph>
<glyph name="t" format="2">
  <advance width="354"/>
  <unicode hex="0074"/>
  <outline>
    <contour>
      <point x="151" y="404" type="line"/>
      <point x="291" y="404" type="line"/>
      <point x="291" y="430" type="line"/>
      <point x="151" y="430" type="line"/>
      <point x="151" y="615" type="line"/>
      <point x="133" y="615" type="line"/>
      <point x="131" y="512"/>
      <point x="96" y="422"/>
      <point x="11" y="420" type="curve"/>
      <point x="11" y="404" type="line"/>
      <point x="98" y="404" type="line"/>
      <point x="98" y="123" type="line" smooth="yes"/>
      <point x="98" y="104"/>
      <point x="98" y="-8"/>
      <point x="214" y="-8" type="curve" smooth="yes"/>
      <point x="273" y="-8"/>
      <point x="307" y="50"/>
      <point x="307" y="124" type="curve" smooth="yes"/>
      <point x="307" y="181" type="line"/>
      <point x="289" y="181" type="line"/>
      <point x="289" y="125" type="line" smooth="yes"/>
      <point x="289" y="56"/>
      <point x="262" y="10"/>
      <point x="220" y="10" type="curve" smooth="yes"/>
      <point x="191" y="10"/>
      <point x="151" y="30"/>
      <point x="151" y="121" type="curve" smooth="yes"/>
    </contour>
  </outline>
</glyph>
<glyph name="u" format="2">
  <advance width="510"/>
  <unicode hex="0075"/>
  <outline>
    <contour>
      <point x="101" y="169" type="line" smooth="yes"/>
      <point x="101" y="102"/>
      <point x="101" y="59"/>
      <point x="127" y="31" type="curve" smooth="yes"/>
      <point x="140" y="18"/>
      <point x="165" y="-8"/>
      <point x="237" y="-8" type="curve" smooth="yes"/>
      <point x="322" y="-8"/>
      <point x="355" y="64"/>
      <point x="363" y="85" type="curve"/>
      <point x="364" y="85" type="line"/>
      <point x="364" y="-8" type="line"/>
      <point x="483" y="0" type="line"/>
      <point x="483" y="26" type="line"/>
      <point x="424" y="26"/>
      <point x="415" y="32"/>
      <point x="415" y="80" type="curve" smooth="yes"/>
      <point x="415" y="438" type="line"/>
      <point x="294" y="427" type="line"/>
      <point x="294" y="401" type="line"/>
      <point x="353" y="401"/>
      <point x="362" y="395"/>
      <point x="362" y="347" type="curve" smooth="yes"/>
      <point x="362" y="165" type="line" smooth="yes"/>
      <point x="362" y="81"/>
      <point x="317" y="8"/>
      <point x="243" y="8" type="curve" smooth="yes"/>
      <point x="161" y="8"/>
      <point x="154" y="57"/>
      <point x="154" y="109" type="curve" smooth="yes"/>
      <point x="154" y="438" type="line"/>
      <point x="33" y="427" type="line"/>
      <point x="33" y="401" type="line"/>
      <point x="73" y="401"/>
      <point x="100" y="401"/>
      <point x="101" y="361" type="curve" smooth="yes"/>
    </contour>
  </outline>
</glyph>
<glyph name="v" format="2">
  <advance width="484"/>
  <unicode hex="0076"/>
  <outline>
    <contour>
      <point x="391" y="340" type="line" smooth="yes"/>
      <point x="400" y="362"/>
      <point x="416" y="402"/>
      <point x="474" y="404" type="curve"/>
      <point x="474" y="430" type="line"/>
      <point x="455" y="429"/>
      <point x="430" y="428"/>
      <point x="411" y="428" type="curve" smooth="yes"/>
      <point x="390" y="428"/>
      <point x="357" y="428"/>
      <point x="337" y="430" type="curve"/>
      <point x="337" y="404" type="line"/>
      <point x="362" y="402"/>
      <point x="376" y="390"/>
      <point x="376" y="364" type="curve" smooth="yes"/>
      <point x="376" y="355"/>
      <point x="376" y="353"/>
      <point x="370" y="339" type="curve" smooth="yes"/>
      <point x="260" y="61" type="line"/>
      <point x="141" y="361" type="line"/>
      <point x="135" y="374"/>
      <point x="135" y="376"/>
      <point x="135" y="380" type="curve" smooth="yes"/>
      <point x="135" y="404"/>
      <point x="168" y="404"/>
      <point x="183" y="404" type="curve"/>
      <point x="183" y="430" type="line"/>
      <point x="159" y="428"/>
      <point x="115" y="428"/>
      <point x="90" y="428" type="curve" smooth="yes"/>
      <point x="63" y="428"/>
      <point x="32" y="428"/>
      <point x="10" y="430" type="curve"/>
      <point x="10" y="404" type="line"/>
      <point x="48" y="404"/>
      <point x="69" y="404"/>
      <point x="81" y="373" type="curve" smooth="yes"/>
      <point x="226" y="9" type="line" smooth="yes"/>
      <point x="232" y="-6"/>
      <point x="233" y="-8"/>
      <point x="242" y="-8" type="curve" smooth="yes"/>
      <point x="251" y="-8"/>
      <point x="252" y="-6"/>
      <point x="258" y="9" type="curve" smooth="yes"/>
    </contour>
  </outline>
</glyph>
<glyph name="z" format="2">
  <advance width="406"/>
  <unicode hex="007A"/>
  <outline>
    <contour>
      <point x="306" y="414" type="line"/>
      <point x="20" y="15" type="line"/>
      <point x="20" y="15" type="line"/>
      <point x="20" y="1"/>
      <point x="21" y="0"/>
      <point x="42" y="0" type="curve" smooth="yes"/>
      <point x="358" y="0" type="line"/>
      <point x="372" y="180" type="line"/>
      <point x="354" y="180" type="line"/>
      <point x="346" y="69"/>
      <point x="333" y="18"/>
      <point x="211" y="18" type="curve" smooth="yes"/>
      <point x="83" y="18" type="line"/>
      <point x="361" y="407" type="line"/>
      <point x="369" y="417"/>
      <point x="369" y="419"/>
      <point x="369" y="421" type="curve" smooth="yes"/>
      <point x="369" y="430"/>
      <point x="365" y="430"/>
      <point x="347" y="430" type="curve" smooth="yes"/>
      <point x="43" y="430" type="line"/>
      <point x="33" y="275" type="line"/>
      <point x="51" y="275" type="line"/>
      <point x="58" y="372"/>
      <point x="69" y="414"/>
      <point x="184" y="414" type="curve" smooth="yes"/>
    </contour>
  </outline>
</glyph>
<glyph name="macron" format="2">
  <advance width="458"/>
  <unicode hex="00AF"/>
  <outline>
    <contour>
      <point x="399" y="553" type="line"/>
      <point x="399" y="576" type="line"/>
      <point x="59" y="576" type="line"/>
      <point x="59" y="553" type="line"/>
    </contour>
  </outline>
</glyph>
<glyph name="acute" format="2">
  <advance width="458"/>
  <unicode hex="00B4"/>
  <outline>
    <contour>
      <point x="347" y="645" type="line" smooth="yes"/>
      <point x="359" y="656"/>
      <point x="362" y="658"/>
      <point x="362" y="669" type="curve" smooth="yes"/>
      <point x="362" y="684"/>
      <point x="349" y="696"/>
      <point x="335" y="696" type="curve" smooth="yes"/>
      <point x="323" y="696"/>
      <point x="319" y="691"/>
      <point x="309" y="679" type="curve" smooth="yes"/>
      <point x="196" y="535" type="line" smooth="yes"/>
      <point x="189" y="526"/>
      <point x="189" y="525"/>
      <point x="189" y="524" type="curve" smooth="yes"/>
      <point x="189" y="523"/>
      <point x="198" y="514"/>
      <point x="200" y="512" type="curve"/>
    </contour>
  </outline>
</glyph>
<glyph name="oslash" format="2">
  <advance width="458"/>
  <unicode hex="00F8"/>
  <outline>
    <contour>
      <point x="66" y="-101" type="line"/>
      <point x="132" y="21" type="line"/>
      <point x="162" y="2"/>
      <point x="195" y="-8"/>
      <point x="229" y="-8" type="curve" smooth="yes"/>
      <point x="334" y="-8"/>
      <point x="425" y="87"/>
      <point x="425" y="214" type="curve" smooth="yes"/>
      <point x="425" y="285"/>
      <point x="396" y="356"/>
      <point x="340" y="402" type="curve"/>
      <point x="405" y="524" type="line"/>
      <point x="392" y="532" type="line"/>
      <point x="327" y="412" type="line"/>
      <point x="308" y="425"/>
      <point x="272" y="442"/>
      <point x="229" y="442" type="curve" smooth="yes"/>
      <point x="122" y="442"/>
      <point x="33" y="341"/>
      <point x="33" y="214" type="curve" smooth="yes"/>
      <point x="33" y="140"/>
      <point x="64" y="73"/>
      <point x="119" y="30" type="curve"/>
      <point x="53" y="-93" type="line"/>
    </contour>
    <contour>
      <point x="229" y="8" type="curve" smooth="yes"/>
      <point x="197" y="8"/>
      <point x="167" y="20"/>
      <point x="144" y="41" type="curve"/>
      <point x="327" y="378" type="line"/>
      <point x="368" y="329"/>
      <point x="372" y="260"/>
      <point x="372" y="214" type="curve" smooth="yes"/>
      <point x="372" y="182"/>
      <point x="370" y="123"/>
      <point x="343" y="77" type="curve" smooth="yes"/>
      <point x="315" y="29"/>
      <point x="270" y="8"/>
    </contour>
    <contour>
      <point x="132" y="54" type="line"/>
      <point x="96" y="94"/>
      <point x="86" y="148"/>
      <point x="86" y="214" type="curve" smooth="yes"/>
      <point x="86.0" y="307.6373"/>
      <point x="111.4137314075" y="359.9514595"/>
      <point x="141.01591435136925" y="389.16240900884674" type="curve" smooth="yes"/>
      <point x="176.5378826425" y="424.21490578500004"/>
      <point x="218.09099999999998" y="426.00000000000006"/>
      <point x="229" y="426" type="curve" smooth="yes"/>
      <point x="271" y="426"/>
      <point x="302" y="403"/>
      <point x="315" y="391" type="curve"/>
    </contour>
  </outline>
</glyph>
<glyph name="OE" format="2">
  <advance width="941"/>
  <unicode hex="0152"/>
  <outline>
    <contour>
      <point x="921" y="253" type="line"/>
      <point x="903" y="253" type="line"/>
      <point x="881" y="105"/>
      <point x="869" y="26"/>
      <point x="699" y="26" type="curve" smooth="yes"/>
      <point x="575" y="26" type="line" smooth="yes"/>
      <point x="535" y="26"/>
      <point x="533" y="31"/>
      <point x="533" y="65" type="curve" smooth="yes"/>
      <point x="533" y="342" type="line"/>
      <point x="648" y="342" type="line" smooth="yes"/>
      <point x="747" y="342"/>
      <point x="760" y="311"/>
      <point x="760" y="225" type="curve"/>
      <point x="778" y="225" type="line"/>
      <point x="778" y="485" type="line"/>
      <point x="760" y="485" type="line"/>
      <point x="760" y="400"/>
      <point x="748" y="368"/>
      <point x="648" y="368" type="curve" smooth="yes"/>
      <point x="533" y="368" type="line"/>
      <point x="533" y="618" type="line" smooth="yes"/>
      <point x="533" y="652"/>
      <point x="535" y="657"/>
      <point x="575" y="657" type="curve" smooth="yes"/>
      <point x="700" y="657" type="line" smooth="yes"/>
      <point x="848" y="657"/>
      <point x="863" y="592"/>
      <point x="877" y="462" type="curve"/>
      <point x="895" y="462" type="line"/>
      <point x="871" y="683" type="line"/>
      <point x="509" y="683" type="line" smooth="yes"/>
      <point x="496" y="683"/>
      <point x="482" y="683"/>
      <point x="444" y="690" type="curve" smooth="yes"/>
      <point x="403" y="698"/>
      <point x="390" y="699"/>
      <point x="371" y="699" type="curve" smooth="yes"/>
      <point x="208" y="699"/>
      <point x="59" y="547"/>
      <point x="59" y="340" type="curve" smooth="yes"/>
      <point x="59" y="135"/>
      <point x="208" y="-16"/>
      <point x="371" y="-16" type="curve" smooth="yes"/>
      <point x="389" y="-16"/>
      <point x="402" y="-15"/>
      <point x="446" y="-7" type="curve" smooth="yes"/>
      <point x="483" y="0"/>
      <point x="496" y="0"/>
      <point x="509" y="0" type="curve" smooth="yes"/>
      <point x="885" y="0" type="line"/>
    </contour>
    <contour>
      <point x="477" y="186" type="line" smooth="yes"/>
      <point x="477" y="38"/>
      <point x="454" y="0"/>
      <point x="373" y="0" type="curve" smooth="yes"/>
      <point x="245" y="0"/>
      <point x="133" y="152"/>
      <point x="133" y="354" type="curve" smooth="yes"/>
      <point x="133" y="550"/>
      <point x="250" y="683"/>
      <point x="372" y="683" type="curve" smooth="yes"/>
      <point x="453" y="683"/>
      <point x="477" y="647"/>
      <point x="477" y="497" type="curve" smooth="yes"/>
    </contour>
  </outline>
</glyph>
<glyph name="oe" format="2">
  <advance width="719"/>
  <unicode hex="0153"/>
  <outline>
    <contour>
      <point x="221" y="-8" type="curve" smooth="yes"/>
      <point x="292" y="-8"/>
      <point x="353" y="38"/>
      <point x="386" y="102" type="curve"/>
      <point x="421" y="38"/>
      <point x="484" y="-8"/>
      <point x="555" y="-8" type="curve" smooth="yes"/>
      <point x="661" y="-8"/>
      <point x="698" y="103"/>
      <point x="698" y="118" type="curve" smooth="yes"/>
      <point x="698" y="124"/>
      <point x="695" y="126"/>
      <point x="690" y="126" type="curve" smooth="yes"/>
      <point x="683" y="126"/>
      <point x="682" y="124"/>
      <point x="679" y="113" type="curve" smooth="yes"/>
      <point x="658" y="41"/>
      <point x="608" y="10"/>
      <point x="561" y="10" type="curve" smooth="yes"/>
      <point x="498" y="10"/>
      <point x="408" y="63"/>
      <point x="412" y="235" type="curve"/>
      <point x="677" y="235" type="line" smooth="yes"/>
      <point x="698" y="235"/>
      <point x="699" y="236"/>
      <point x="699" y="253" type="curve" smooth="yes"/>
      <point x="699" y="353"/>
      <point x="648" y="442"/>
      <point x="544" y="442" type="curve" smooth="yes"/>
      <point x="472" y="442"/>
      <point x="416" y="394"/>
      <point x="385" y="334" type="curve"/>
      <point x="352" y="397"/>
      <point x="292" y="442"/>
      <point x="221" y="442" type="curve" smooth="yes"/>
      <point x="122" y="442"/>
      <point x="27" y="351"/>
      <point x="27" y="217" type="curve" smooth="yes"/>
      <point x="27" y="85"/>
      <point x="120" y="-8"/>
    </contour>
    <contour>
      <point x="222" y="8" type="curve" smooth="yes"/>
      <point x="198" y="8"/>
      <point x="88" y="21"/>
      <point x="88" y="222" type="curve" smooth="yes"/>
      <point x="88" y="416"/>
      <point x="200" y="426"/>
      <point x="222" y="426" type="curve" smooth="yes"/>
      <point x="227" y="426"/>
      <point x="359" y="426"/>
      <point x="359" y="222" type="curve" smooth="yes"/>
      <point x="359" y="46"/>
      <point x="267" y="8"/>
    </contour>
    <contour>
      <point x="413" y="250" type="line"/>
      <point x="423" y="393"/>
      <point x="502" y="426"/>
      <point x="542" y="426" type="curve" smooth="yes"/>
      <point x="640" y="426"/>
      <point x="644" y="285"/>
      <point x="645" y="250" type="curve"/>
    </contour>
  </outline>
</glyph>
<glyph name="caron" format="2">
  <advance width="458"/>
  <unicode hex="02C7"/>
  <outline>
    <contour>
      <point x="229" y="559" type="line"/>
      <point x="117" y="635" type="line"/>
      <point x="107" y="621" type="line"/>
      <point x="229" y="519" type="line"/>
      <point x="351" y="621" type="line"/>
      <point x="341" y="635" type="line"/>
    </contour>
  </outline>
</glyph>
<glyph name="ring" format="2">
  <advance width="693"/>
  <unicode hex="02DA"/>
  <outline>
    <contour>
      <point x="433" y="622" type="curve" smooth="yes"/>
      <point x="433" y="672"/>
      <point x="393" y="710"/>
      <point x="346" y="710" type="curve" smooth="yes"/>
      <point x="299" y="710"/>
      <point x="259" y="672"/>
      <point x="259" y="622" type="curve" smooth="yes"/>
      <point x="259" y="572"/>
      <point x="299" y="534"/>
      <point x="346" y="534" type="curve" smooth="yes"/>
      <point x="393" y="534"/>
      <point x="433" y="572"/>
    </contour>
    <contour>
      <point x="346" y="550" type="curve" smooth="yes"/>
      <point x="304" y="550"/>
      <point x="277" y="576"/>
      <point x="277" y="622" type="curve" smooth="yes"/>
      <point x="277" y="669"/>
      <point x="305" y="694"/>
      <point x="346" y="694" type="curve" smooth="yes"/>
      <point x="388" y="694"/>
      <point x="415" y="668"/>
      <point x="415" y="622" type="curve" smooth="yes"/>
      <point x="415" y="575"/>
      <point x="387" y="550"/>
    </contour>
  </outline>
</glyph>
<glyph name="tilde" format="2">
  <advance width="458"/>
  <unicode hex="02DC"/>
  <outline>
    <contour>
      <point x="375" y="656" type="line"/>
      <point x="341" y="623"/>
      <point x="322" y="604"/>
      <point x="291" y="604" type="curve" smooth="yes"/>
      <point x="269" y="604"/>
      <point x="254" y="615"/>
      <point x="233" y="630" type="curve" smooth="yes"/>
      <point x="213" y="644"/>
      <point x="197" y="656"/>
      <point x="175" y="656" type="curve" smooth="yes"/>
      <point x="139" y="656"/>
      <point x="114" y="627"/>
      <point x="72" y="581" type="curve"/>
      <point x="83" y="570" type="line"/>
      <point x="117" y="603"/>
      <point x="136" y="622"/>
      <point x="167" y="622" type="curve" smooth="yes"/>
      <point x="189" y="622"/>
      <point x="204" y="611"/>
      <point x="225" y="596" type="curve" smooth="yes"/>
      <point x="245" y="582"/>
      <point x="261" y="570"/>
      <point x="283" y="570" type="curve" smooth="yes"/>
      <point x="319" y="570"/>
      <point x="344" y="599"/>
      <point x="386" y="645" type="curve"/>
    </contour>
  </outline>
</glyph>
<glyph name="hungarumlaut" format="2">
  <advance width="458"/>
  <unicode hex="02DD"/>
  <outline>
    <contour>
      <point x="122" y="536" type="line"/>
      <point x="121" y="533"/>
      <point x="118" y="526"/>
      <point x="118" y="524" type="curve" smooth="yes"/>
      <point x="118" y="521"/>
      <point x="129" y="515"/>
      <point x="132" y="514" type="curve"/>
      <point x="221" y="647" type="line" smooth="yes"/>
      <point x="231" y="661"/>
      <point x="231" y="667"/>
      <point x="231" y="671" type="curve" smooth="yes"/>
      <point x="231" y="686"/>
      <point x="216" y="697"/>
      <point x="203" y="697" type="curve" smooth="yes"/>
      <point x="187" y="697"/>
      <point x="183" y="687"/>
      <point x="177" y="673" type="curve" smooth="yes"/>
    </contour>
    <contour>
      <point x="279" y="536" type="line"/>
      <point x="278" y="533"/>
      <point x="275" y="526"/>
      <point x="275" y="524" type="curve" smooth="yes"/>
      <point x="275" y="521"/>
      <point x="286" y="515"/>
      <point x="289" y="514" type="curve"/>
      <point x="378" y="647" type="line" smooth="yes"/>
      <point x="388" y="661"/>
      <point x="388" y="667"/>
      <point x="388" y="671" type="curve" smooth="yes"/>
      <point x="388" y="686"/>
      <point x="373" y="697"/>
      <point x="360" y="697" type="curve" smooth="yes"/>
      <point x="344" y="697"/>
      <point x="340" y="687"/>
      <point x="334" y="673" type="curve" smooth="yes"/>
    </contour>
  </outline>
</glyph>
<glyph name="Gamma" format="2">
  <advance width="575"/>
  <unicode hex="0393"/>
  <outline>
    <contour>
      <point x="518" y="681" type="line"/>
      <point x="51" y="681" type="line"/>
      <point x="51" y="655" type="line"/>
      <point x="120" y="655"/>
      <point x="131" y="655"/>
      <point x="131" y="610" type="curve" smooth="yes"/>
      <point x="131" y="71" type="line" smooth="yes"/>
      <point x="131" y="26"/>
      <point x="120" y="26"/>
      <point x="51" y="26" type="curve"/>
      <point x="51" y="0" type="line"/>
      <point x="80" y="2"/>
      <point x="136" y="2"/>
      <point x="167" y="2" type="curve" smooth="yes"/>
      <point x="208" y="2"/>
      <point x="256" y="2"/>
      <point x="297" y="0" type="curve"/>
      <point x="297" y="26" type="line"/>
      <point x="275" y="26" type="line" smooth="yes"/>
      <point x="199" y="26"/>
      <point x="197" y="36"/>
      <point x="197" y="72" type="curve" smooth="yes"/>
      <point x="197" y="616" type="line" smooth="yes"/>
      <point x="197" y="650"/>
      <point x="199" y="655"/>
      <point x="239" y="655" type="curve" smooth="yes"/>
      <point x="349" y="655" type="line" smooth="yes"/>
      <point x="501" y="655"/>
      <point x="509" y="585"/>
      <point x="524" y="460" type="curve"/>
      <point x="542" y="460" type="line"/>
    </contour>
  </outline>
</glyph>
<glyph name="Theta" format="2">
  <advance width="719"/>
  <unicode hex="0398"/>
  <outline>
    <contour>
      <point x="673" y="340" type="curve" smooth="yes"/>
      <point x="673" y="545"/>
      <point x="526" y="699"/>
      <point x="360" y="699" type="curve" smooth="yes"/>
      <point x="190" y="699"/>
      <point x="46" y="543"/>
      <point x="46" y="340" type="curve" smooth="yes"/>
      <point x="46" y="137"/>
      <point x="192" y="-16"/>
      <point x="359" y="-16" type="curve" smooth="yes"/>
      <point x="530" y="-16"/>
      <point x="673" y="140"/>
    </contour>
    <contour>
      <point x="360" y="1" type="curve" smooth="yes"/>
      <point x="246" y="1"/>
      <point x="119" y="109"/>
      <point x="119" y="340" type="curve" smooth="yes"/>
      <point x="119" y="578"/>
      <point x="250" y="683"/>
      <point x="359" y="683" type="curve" smooth="yes"/>
      <point x="472" y="683"/>
      <point x="600" y="575"/>
      <point x="600" y="340" type="curve" smooth="yes"/>
      <point x="600" y="106"/>
      <point x="470" y="1"/>
    </contour>
    <contour>
      <point x="547" y="404" type="line"/>
      <point x="529" y="404" type="line"/>
      <point x="529" y="370" type="line"/>
      <point x="190" y="370" type="line"/>
      <point x="190" y="404" type="line"/>
      <point x="172" y="404" type="line"/>
      <point x="172" y="280" type="line"/>
      <point x="190" y="280" type="line"/>
      <point x="190" y="314" type="line"/>
      <point x="529" y="314" type="line"/>
      <point x="529" y="280" type="line"/>
      <point x="547" y="280" type="line"/>
    </contour>
  </outline>
</glyph>
<glyph name="Lambda" format="2">
  <advance width="641"/>
  <unicode hex="039B"/>
  <outline>
    <contour>
      <point x="23" y="0" type="line"/>
      <point x="40" y="1"/>
      <point x="75" y="2"/>
      <point x="93" y="2" type="curve" smooth="yes"/>
      <point x="118" y="2"/>
      <point x="157" y="2"/>
      <point x="181" y="0" type="curve"/>
      <point x="181" y="26" type="line"/>
      <point x="128" y="28"/>
      <point x="125" y="66"/>
      <point x="125" y="73" type="curve" smooth="yes"/>
      <point x="125" y="80"/>
      <point x="127" y="86"/>
      <point x="130" y="96" type="curve" smooth="yes"/>
      <point x="296" y="601" type="line"/>
      <point x="470" y="73" type="line" smooth="yes"/>
      <point x="475" y="59"/>
      <point x="475" y="57"/>
      <point x="475" y="54" type="curve" smooth="yes"/>
      <point x="475" y="26"/>
      <point x="433" y="26"/>
      <point x="412" y="26" type="curve"/>
      <point x="412" y="0" type="line"/>
      <point x="441" y="2"/>
      <point x="492" y="2"/>
      <point x="523" y="2" type="curve" smooth="yes"/>
      <point x="548" y="2"/>
      <point x="594" y="2"/>
      <point x="617" y="0" type="curve"/>
      <point x="617" y="26" type="line"/>
      <point x="617" y="26" type="line"/>
      <point x="573" y="26"/>
      <point x="555" y="26"/>
      <point x="543" y="61" type="curve" smooth="yes"/>
      <point x="336" y="690" type="line" smooth="yes"/>
      <point x="331" y="706"/>
      <point x="330" y="707"/>
      <point x="320" y="707" type="curve" smooth="yes"/>
      <point x="310" y="707"/>
      <point x="309" y="706"/>
      <point x="304" y="690" type="curve" smooth="yes"/>
      <point x="107" y="92" type="line" smooth="yes"/>
      <point x="89" y="39"/>
      <point x="56" y="27"/>
      <point x="23" y="26" type="curve"/>
    </contour>
  </outline>
</glyph>
<glyph name="Xi" format="2">
  <advance width="615"/>
  <unicode hex="039E"/>
  <outline>
    <contour>
      <point x="569" y="680" type="line"/>
      <point x="45" y="680" type="line"/>
      <point x="43" y="649"/>
      <point x="40" y="590"/>
      <point x="39" y="561" type="curve" smooth="yes"/>
      <point x="38" y="542" type="line"/>
      <point x="56" y="542" type="line"/>
      <point x="57" y="560"/>
      <point x="59" y="607"/>
      <point x="68" y="619" type="curve"/>
      <point x="74" y="628"/>
      <point x="131" y="628"/>
      <point x="141" y="628" type="curve" smooth="yes"/>
      <point x="473" y="628" type="line" smooth="yes"/>
      <point x="497" y="628"/>
      <point x="542" y="628"/>
      <point x="548" y="618" type="curve"/>
      <point x="555" y="602"/>
      <point x="557" y="561"/>
      <point x="558" y="542" type="curve"/>
      <point x="576" y="542" type="line"/>
      <point x="574" y="573"/>
      <point x="571" y="632"/>
      <point x="570" y="661" type="curve" smooth="yes"/>
    </contour>
    <contour>
      <point x="40" y="0" type="line"/>
      <point x="574" y="0" type="line"/>
      <point x="581" y="149" type="line"/>
      <point x="563" y="149" type="line"/>
      <point x="560" y="104"/>
      <point x="559" y="78"/>
      <point x="552" y="64" type="curve" smooth="yes"/>
      <point x="546" y="52"/>
      <point x="500" y="52"/>
      <point x="474" y="52" type="curve" smooth="yes"/>
      <point x="140" y="52" type="line" smooth="yes"/>
      <point x="104" y="52"/>
      <point x="67" y="52"/>
      <point x="61" y="65" type="curve" smooth="yes"/>
      <point x="55" y="79"/>
      <point x="53" y="109"/>
      <point x="51" y="149" type="curve"/>
      <point x="33" y="149" type="line"/>
    </contour>
    <contour>
      <point x="489" y="420" type="line"/>
      <point x="471" y="420" type="line"/>
      <point x="471" y="380" type="line"/>
      <point x="143" y="380" type="line"/>
      <point x="143" y="420" type="line"/>
      <point x="125" y="420" type="line"/>
      <point x="125" y="288" type="line"/>
      <point x="143" y="288" type="line"/>
      <point x="143" y="328" type="line"/>
      <point x="471" y="328" type="line"/>
      <point x="471" y="288" type="line"/>
      <point x="489" y="288" type="line"/>
    </contour>
  </outline>
</glyph>
<glyph name="Pi" format="2">
  <advance width="693"/>
  <unicode hex="03A0"/>
  <outline>
    <contour>
      <point x="561" y="610" type="line" smooth="yes"/>
      <point x="561" y="655"/>
      <point x="572" y="655"/>
      <point x="641" y="655" type="curve"/>
      <point x="641" y="681" type="line"/>
      <point x="51" y="681" type="line"/>
      <point x="51" y="655" type="line"/>
      <point x="120" y="655"/>
      <point x="131" y="655"/>
      <point x="131" y="610" type="curve" smooth="yes"/>
      <point x="131" y="71" type="line" smooth="yes"/>
      <point x="131" y="26"/>
      <point x="120" y="26"/>
      <point x="51" y="26" type="curve"/>
      <point x="51" y="0" type="line"/>
      <point x="80" y="2"/>
      <point x="133" y="2"/>
      <point x="164" y="2" type="curve" smooth="yes"/>
      <point x="195" y="2"/>
      <point x="248" y="2"/>
      <point x="277" y="0" type="curve"/>
      <point x="277" y="26" type="line"/>
      <point x="208" y="26"/>
      <point x="197" y="26"/>
      <point x="197" y="71" type="curve" smooth="yes"/>
      <point x="197" y="655" type="line"/>
      <point x="495" y="655" type="line"/>
      <point x="495" y="71" type="line" smooth="yes"/>
      <point x="495" y="26"/>
      <point x="484" y="26"/>
      <point x="415" y="26" type="curve"/>
      <point x="415" y="0" type="line"/>
      <point x="444" y="2"/>
      <point x="497" y="2"/>
      <point x="528" y="2" type="curve" smooth="yes"/>
      <point x="559" y="2"/>
      <point x="612" y="2"/>
      <point x="641" y="0" type="curve"/>
      <point x="641" y="26" type="line"/>
      <point x="572" y="26"/>
      <point x="561" y="26"/>
      <point x="561" y="71" type="curve" smooth="yes"/>
    </contour>
  </outline>
</glyph>
<glyph name="Sigma" format="2">
  <advance width="667"/>
  <unicode hex="03A3"/>
  <outline>
    <contour>
      <point x="323" y="329" type="line"/>
      <point x="330" y="337"/>
      <point x="330" y="339"/>
      <point x="330" y="342" type="curve" smooth="yes"/>
      <point x="330" y="346"/>
      <point x="326" y="352"/>
      <point x="325" y="354" type="curve"/>
      <point x="128" y="657" type="line"/>
      <point x="372" y="657" type="line" smooth="yes"/>
      <point x="461.76782" y="657.0"/>
      <point x="517.6135056236" y="646.4724410556"/>
      <point x="552.6625570980262" y="611.6592687117557" type="curve" smooth="yes"/>
      <point x="582.4267376343" y="582.0954002733"/>
      <point x="597.19309" y="535.01757"/>
      <point x="605" y="462" type="curve"/>
      <point x="621" y="462" type="line"/>
      <point x="597" y="683" type="line"/>
      <point x="68" y="683" type="line" smooth="yes"/>
      <point x="47" y="683"/>
      <point x="46" y="682"/>
      <point x="46" y="661" type="curve"/>
      <point x="46" y="661"/>
      <point x="46" y="661"/>
      <point x="46" y="661" type="curve"/>
      <point x="277" y="305" type="line"/>
      <point x="54" y="19" type="line" smooth="yes"/>
      <point x="47" y="10"/>
      <point x="47" y="9"/>
      <point x="47" y="7" type="curve" smooth="yes"/>
      <point x="47" y="0"/>
      <point x="53" y="0"/>
      <point x="68" y="0" type="curve" smooth="yes"/>
      <point x="597" y="0" type="line"/>
      <point x="621" y="229" type="line"/>
      <point x="603" y="229" type="line"/>
      <point x="595.78304" y="155.92828"/>
      <point x="580.2244199324" y="109.1022709444"/>
      <point x="550.450829841935" y="79.71200790030247" type="curve" smooth="yes"/>
      <point x="514.216372022" y="43.94405907880001"/>
      <point x="456.92828" y="34.000000000000014"/>
      <point x="368" y="34" type="curve" smooth="yes"/>
      <point x="92" y="34" type="line"/>
    </contour>
  </outline>
</glyph>
<glyph name="Upsilon" format="2">
  <advance width="719"/>
  <unicode hex="03A5"/>
  <outline>
    <contour>
      <point x="393" y="353" type="line" smooth="yes"/>
      <point x="393" y="397"/>
      <point x="399" y="482"/>
      <point x="426" y="547" type="curve" smooth="yes"/>
      <point x="454" y="612"/>
      <point x="498" y="642"/>
      <point x="552" y="642" type="curve" smooth="yes"/>
      <point x="584" y="642"/>
      <point x="643" y="624"/>
      <point x="652" y="551" type="curve" smooth="yes"/>
      <point x="653" y="543"/>
      <point x="653" y="540"/>
      <point x="662" y="540" type="curve" smooth="yes"/>
      <point x="672" y="540"/>
      <point x="673" y="543"/>
      <point x="673" y="553" type="curve" smooth="yes"/>
      <point x="673" y="606"/>
      <point x="638" y="699"/>
      <point x="551" y="699" type="curve" smooth="yes"/>
      <point x="399" y="699"/>
      <point x="368" y="505"/>
      <point x="361" y="454" type="curve"/>
      <point x="360" y="454" type="line"/>
      <point x="352" y="506"/>
      <point x="320" y="699"/>
      <point x="168" y="699" type="curve" smooth="yes"/>
      <point x="80" y="699"/>
      <point x="46" y="605"/>
      <point x="46" y="553" type="curve" smooth="yes"/>
      <point x="46" y="543"/>
      <point x="47" y="540"/>
      <point x="57" y="540" type="curve" smooth="yes"/>
      <point x="66" y="540"/>
      <point x="66" y="543"/>
      <point x="67" y="551" type="curve" smooth="yes"/>
      <point x="76" y="625"/>
      <point x="135" y="642"/>
      <point x="167" y="642" type="curve" smooth="yes"/>
      <point x="317" y="642"/>
      <point x="327" y="413"/>
      <point x="327" y="353" type="curve" smooth="yes"/>
      <point x="327" y="72" type="line" smooth="yes"/>
      <point x="327" y="36"/>
      <point x="325" y="26"/>
      <point x="249" y="26" type="curve" smooth="yes"/>
      <point x="227" y="26" type="line"/>
      <point x="227" y="0" type="line"/>
      <point x="269" y="2"/>
      <point x="318" y="2"/>
      <point x="360" y="2" type="curve" smooth="yes"/>
      <point x="402" y="2"/>
      <point x="451" y="2"/>
      <point x="493" y="0" type="curve"/>
      <point x="493" y="26" type="line"/>
      <point x="471" y="26" type="line" smooth="yes"/>
      <point x="395" y="26"/>
      <point x="393" y="36"/>
      <point x="393" y="72" type="curve" smooth="yes"/>
    </contour>
  </outline>
</glyph>
<glyph name="Phi" format="2">
  <advance width="667"/>
  <unicode hex="03A6"/>
  <outline>
    <contour>
      <point x="201" y="0" type="line"/>
      <point x="242" y="2"/>
      <point x="291" y="2"/>
      <point x="333" y="2" type="curve" smooth="yes"/>
      <point x="375" y="2"/>
      <point x="423" y="2"/>
      <point x="464" y="0" type="curve"/>
      <point x="464" y="26" type="line"/>
      <point x="442" y="26" type="line" smooth="yes"/>
      <point x="366" y="26"/>
      <point x="364" y="36"/>
      <point x="364" y="72" type="curve" smooth="yes"/>
      <point x="364" y="129" type="line"/>
      <point x="526" y="143"/>
      <point x="621" y="244"/>
      <point x="621" y="341" type="curve" smooth="yes"/>
      <point x="621" y="442"/>
      <point x="522" y="540"/>
      <point x="364" y="554" type="curve"/>
      <point x="364" y="611" type="line" smooth="yes"/>
      <point x="364" y="647"/>
      <point x="366" y="657"/>
      <point x="442" y="657" type="curve" smooth="yes"/>
      <point x="464" y="657" type="line"/>
      <point x="464" y="683" type="line"/>
      <point x="423" y="681"/>
      <point x="375" y="681"/>
      <point x="333" y="681" type="curve" smooth="yes"/>
      <point x="291" y="681"/>
      <point x="242" y="681"/>
      <point x="201" y="683" type="curve"/>
      <point x="201" y="657" type="line"/>
      <point x="223" y="657" type="line" smooth="yes"/>
      <point x="299" y="657"/>
      <point x="301" y="647"/>
      <point x="301" y="611" type="curve" smooth="yes"/>
      <point x="301" y="554" type="line"/>
      <point x="144" y="540"/>
      <point x="46" y="441"/>
      <point x="46" y="342" type="curve" smooth="yes"/>
      <point x="46" y="239"/>
      <point x="148" y="143"/>
      <point x="301" y="129" type="curve"/>
      <point x="301" y="72" type="line" smooth="yes"/>
      <point x="301" y="36"/>
      <point x="299" y="26"/>
      <point x="223" y="26" type="curve" smooth="yes"/>
      <point x="201" y="26" type="line"/>
    </contour>
    <contour>
      <point x="301" y="146" type="line"/>
      <point x="211" y="156"/>
      <point x="120" y="208"/>
      <point x="120" y="341" type="curve" smooth="yes"/>
      <point x="120" y="478"/>
      <point x="214" y="528"/>
      <point x="301" y="537" type="curve"/>
    </contour>
    <contour>
      <point x="364" y="146" type="curve"/>
      <point x="364" y="537" type="line"/>
      <point x="443" y="530"/>
      <point x="547" y="485"/>
      <point x="547" y="342" type="curve" smooth="yes"/>
      <point x="547" y="195"/>
      <point x="439" y="153"/>
    </contour>
  </outline>
</glyph>
<glyph name="Psi" format="2">
  <advance width="719"/>
  <unicode hex="03A8"/>
  <outline>
    <contour>
      <point x="390" y="611" type="line" smooth="yes"/>
      <point x="390" y="647"/>
      <point x="392" y="657"/>
      <point x="468" y="657" type="curve" smooth="yes"/>
      <point x="490" y="657" type="line"/>
      <point x="490" y="683" type="line"/>
      <point x="449" y="681"/>
      <point x="401" y="681"/>
      <point x="359" y="681" type="curve" smooth="yes"/>
      <point x="317" y="681"/>
      <point x="268" y="681"/>
      <point x="227" y="683" type="curve"/>
      <point x="227" y="657" type="line"/>
      <point x="249" y="657" type="line" smooth="yes"/>
      <point x="325" y="657"/>
      <point x="327" y="647"/>
      <point x="327" y="611" type="curve" smooth="yes"/>
      <point x="327" y="147" type="line"/>
      <point x="184" y="176"/>
      <point x="182" y="360"/>
      <point x="182" y="412" type="curve" smooth="yes"/>
      <point x="181" y="507"/>
      <point x="156" y="556"/>
      <point x="94" y="556" type="curve" smooth="yes"/>
      <point x="68" y="556" type="line" smooth="yes"/>
      <point x="52" y="556"/>
      <point x="47" y="556"/>
      <point x="47" y="548" type="curve" smooth="yes"/>
      <point x="47" y="547"/>
      <point x="47" y="541"/>
      <point x="52" y="541" type="curve"/>
      <point x="80" y="536"/>
      <point x="118" y="530"/>
      <point x="119" y="396" type="curve" smooth="yes"/>
      <point x="120" y="303"/>
      <point x="153" y="150"/>
      <point x="327" y="130" type="curve"/>
      <point x="327" y="72" type="line" smooth="yes"/>
      <point x="327" y="36"/>
      <point x="325" y="26"/>
      <point x="249" y="26" type="curve" smooth="yes"/>
      <point x="227" y="26" type="line"/>
      <point x="227" y="0" type="line"/>
      <point x="268" y="2"/>
      <point x="317" y="2"/>
      <point x="359" y="2" type="curve" smooth="yes"/>
      <point x="401" y="2"/>
      <point x="449" y="2"/>
      <point x="490" y="0" type="curve"/>
      <point x="490" y="26" type="line"/>
      <point x="468" y="26" type="line" smooth="yes"/>
      <point x="392" y="26"/>
      <point x="390" y="36"/>
      <point x="390" y="72" type="curve" smooth="yes"/>
      <point x="390" y="130" type="line"/>
      <point x="598" y="152"/>
      <point x="600" y="362"/>
      <point x="600" y="419" type="curve" smooth="yes"/>
      <point x="600" y="465"/>
      <point x="610" y="530"/>
      <point x="661" y="540" type="curve" smooth="yes"/>
      <point x="671" y="542"/>
      <point x="673" y="542"/>
      <point x="673" y="548" type="curve" smooth="yes"/>
      <point x="673" y="556"/>
      <point x="668" y="556"/>
      <point x="651" y="556" type="curve" smooth="yes"/>
      <point x="625" y="556" type="line" smooth="yes"/>
      <point x="559" y="556"/>
      <point x="538" y="504"/>
      <point x="537" y="401" type="curve" smooth="yes"/>
      <point x="536" y="295"/>
      <point x="508" y="172"/>
      <point x="390" y="147" type="curve"/>
    </contour>
  </outline>
</glyph>
<glyph name="quoteright" format="2">
  <advance width="249"/>
  <unicode hex="2019"/>
  <outline>
    <contour>
      <point x="160" y="631" type="curve"/>
      <point x="162" y="620"/>
      <point x="163" y="616"/>
      <point x="163" y="599" type="curve" smooth="yes"/>
      <point x="163" y="536"/>
      <point x="138" y="478"/>
      <point x="99" y="437" type="curve" smooth="yes"/>
      <point x="95" y="433"/>
      <point x="93" y="430"/>
      <point x="93" y="426" type="curve" smooth="yes"/>
      <point x="93" y="422"/>
      <point x="97" y="418"/>
      <point x="101" y="418" type="curve" smooth="yes"/>
      <point x="108" y="418"/>
      <point x="179" y="488"/>
      <point x="179" y="598" type="curve" smooth="yes"/>
      <point x="179" y="620"/>
      <point x="177" y="694"/>
      <point x="125" y="694" type="curve" smooth="yes"/>
      <point x="103" y="694"/>
      <point x="84" y="679"/>
      <point x="84" y="653" type="curve" smooth="yes"/>
      <point x="84" y="627"/>
      <point x="103" y="612"/>
      <point x="125" y="612" type="curve" smooth="yes"/>
      <point x="134" y="612"/>
      <point x="151" y="615"/>
    </contour>
  </outline>
</glyph>
<glyph name="quotedblleft" format="2">
  <advance width="458"/>
  <unicode hex="201C"/>
  <outline>
    <contour>
      <point x="174" y="480" type="curve"/>
      <point x="172" y="491"/>
      <point x="171" y="495"/>
      <point x="171" y="512" type="curve" smooth="yes"/>
      <point x="171" y="575"/>
      <point x="196" y="633"/>
      <point x="235" y="674" type="curve" smooth="yes"/>
      <point x="239" y="678"/>
      <point x="241" y="681"/>
      <point x="241" y="685" type="curve" smooth="yes"/>
      <point x="241" y="689"/>
      <point x="237" y="693"/>
      <point x="233" y="693" type="curve" smooth="yes"/>
      <point x="226" y="693"/>
      <point x="155" y="623"/>
      <point x="155" y="513" type="curve" smooth="yes"/>
      <point x="155" y="491"/>
      <point x="157" y="417"/>
      <point x="209" y="417" type="curve" smooth="yes"/>
      <point x="231" y="417"/>
      <point x="250" y="432"/>
      <point x="250" y="458" type="curve" smooth="yes"/>
      <point x="250" y="484"/>
      <point x="231" y="499"/>
      <point x="209" y="499" type="curve" smooth="yes"/>
      <point x="200" y="499"/>
      <point x="183" y="496"/>
    </contour>
    <contour>
      <point x="357" y="480" type="curve"/>
      <point x="355" y="491"/>
      <point x="354" y="495"/>
      <point x="354" y="512" type="curve" smooth="yes"/>
      <point x="354" y="575"/>
      <point x="379" y="633"/>
      <point x="418" y="674" type="curve" smooth="yes"/>
      <point x="422" y="678"/>
      <point x="424" y="681"/>
      <point x="424" y="685" type="curve" smooth="yes"/>
      <point x="424" y="689"/>
      <point x="420" y="693"/>
      <point x="416" y="693" type="curve" smooth="yes"/>
      <point x="409" y="693"/>
      <point x="338" y="623"/>
      <point x="338" y="513" type="curve" smooth="yes"/>
      <point x="338" y="491"/>
      <point x="340" y="417"/>
      <point x="392" y="417" type="curve" smooth="yes"/>
      <point x="414" y="417"/>
      <point x="433" y="432"/>
      <point x="433" y="458" type="curve" smooth="yes"/>
      <point x="433" y="484"/>
      <point x="414" y="499"/>
      <point x="392" y="499" type="curve" smooth="yes"/>
      <point x="383" y="499"/>
      <point x="366" y="496"/>
    </contour>
  </outline>
</glyph>
<glyph name="quotedblright" format="2">
  <advance width="458"/>
  <unicode hex="201D"/>
  <outline>
    <contour>
      <point x="101" y="631" type="curve"/>
      <point x="103" y="620"/>
      <point x="104" y="616"/>
      <point x="104" y="599" type="curve" smooth="yes"/>
      <point x="104" y="536"/>
      <point x="79" y="478"/>
      <point x="40" y="437" type="curve" smooth="yes"/>
      <point x="36" y="433"/>
      <point x="34" y="430"/>
      <point x="34" y="426" type="curve" smooth="yes"/>
      <point x="34" y="422"/>
      <point x="38" y="418"/>
      <point x="42" y="418" type="curve" smooth="yes"/>
      <point x="49" y="418"/>
      <point x="120" y="488"/>
      <point x="120" y="598" type="curve" smooth="yes"/>
      <point x="120" y="620"/>
      <point x="118" y="694"/>
      <point x="66" y="694" type="curve" smooth="yes"/>
      <point x="44" y="694"/>
      <point x="25" y="679"/>
      <point x="25" y="653" type="curve" smooth="yes"/>
      <point x="25" y="627"/>
      <point x="44" y="612"/>
      <point x="66" y="612" type="curve" smooth="yes"/>
      <point x="75" y="612"/>
      <point x="92" y="615"/>
    </contour>
    <contour>
      <point x="284" y="631" type="curve"/>
      <point x="286" y="620"/>
      <point x="287" y="616"/>
      <point x="287" y="599" type="curve" smooth="yes"/>
      <point x="287" y="536"/>
      <point x="262" y="478"/>
      <point x="223" y="437" type="curve" smooth="yes"/>
      <point x="219" y="433"/>
      <point x="217" y="430"/>
      <point x="217" y="426" type="curve" smooth="yes"/>
      <point x="217" y="422"/>
      <point x="221" y="418"/>
      <point x="225" y="418" type="curve" smooth="yes"/>
      <point x="232" y="418"/>
      <point x="303" y="488"/>
      <point x="303" y="598" type="curve" smooth="yes"/>
      <point x="303" y="620"/>
      <point x="301" y="694"/>
      <point x="249" y="694" type="curve" smooth="yes"/>
      <point x="227" y="694"/>
      <point x="208" y="679"/>
      <point x="208" y="653" type="curve" smooth="yes"/>
      <point x="208" y="627"/>
      <point x="227" y="612"/>
      <point x="249" y="612" type="curve" smooth="yes"/>
      <point x="258" y="612"/>
      <point x="275" y="615"/>
    </contour>
  </outline>
</glyph>
<glyph name="Omega" format="2">
  <advance width="667"/>
  <unicode hex="2126"/>
  <outline>
    <contour>
      <point x="631" y="146" type="line"/>
      <point x="613" y="146" type="line"/>
      <point x="604" y="100"/>
      <point x="601" y="88"/>
      <point x="596" y="72" type="curve" smooth="yes"/>
      <point x="591" y="57"/>
      <point x="588" y="49"/>
      <point x="530" y="49" type="curve" smooth="yes"/>
      <point x="449" y="49" type="line"/>
      <point x="460" y="107"/>
      <point x="484" y="150"/>
      <point x="526" y="217" type="curve" smooth="yes"/>
      <point x="578" y="302"/>
      <point x="621" y="371"/>
      <point x="621" y="454" type="curve" smooth="yes"/>
      <point x="621" y="589"/>
      <point x="493" y="699"/>
      <point x="334" y="699" type="curve" smooth="yes"/>
      <point x="171" y="699"/>
      <point x="46" y="588"/>
      <point x="46" y="454" type="curve" smooth="yes"/>
      <point x="46" y="371"/>
      <point x="90" y="300"/>
      <point x="139" y="221" type="curve" smooth="yes"/>
      <point x="183" y="150"/>
      <point x="207" y="107"/>
      <point x="218" y="49" type="curve"/>
      <point x="137" y="49" type="line" smooth="yes"/>
      <point x="80" y="49"/>
      <point x="77" y="57"/>
      <point x="72" y="71" type="curve" smooth="yes"/>
      <point x="66" y="87"/>
      <point x="64" y="100"/>
      <point x="54" y="146" type="curve"/>
      <point x="36" y="146" type="line"/>
      <point x="65" y="0" type="line"/>
      <point x="216" y="0" type="line" smooth="yes"/>
      <point x="237" y="0"/>
      <point x="238" y="1"/>
      <point x="238" y="16" type="curve" smooth="yes"/>
      <point x="238" y="87"/>
      <point x="201" y="180"/>
      <point x="184" y="223" type="curve" smooth="yes"/>
      <point x="152" y="301"/>
      <point x="122" y="377"/>
      <point x="122" y="455" type="curve" smooth="yes"/>
      <point x="122" y="604"/>
      <point x="229" y="683"/>
      <point x="333" y="683" type="curve" smooth="yes"/>
      <point x="442" y="683"/>
      <point x="545" y="601"/>
      <point x="545" y="455" type="curve" smooth="yes"/>
      <point x="545" y="378"/>
      <point x="518" y="309"/>
      <point x="481" y="218" type="curve" smooth="yes"/>
      <point x="465" y="177"/>
      <point x="429" y="86"/>
      <point x="429" y="16" type="curve" smooth="yes"/>
      <point x="429" y="0"/>
      <point x="430" y="0"/>
      <point x="451" y="0" type="curve" smooth="yes"/>
      <point x="602" y="0" type="line"/>
    </contour>
  </outline>
</glyph>
<glyph name="Delta" format="2">
  <advance width="772"/>
  <unicode hex="2206"/>
  <outline>
    <contour>
      <point x="406" y="690" type="line" smooth="yes"/>
      <point x="398" y="707"/>
      <point x="394" y="707"/>
      <point x="386" y="707" type="curve" smooth="yes"/>
      <point x="374" y="707"/>
      <point x="373" y="705"/>
      <point x="366" y="691" type="curve" smooth="yes"/>
      <point x="42" y="17" type="line" smooth="yes"/>
      <point x="41" y="15"/>
      <point x="37" y="6"/>
      <point x="37" y="5" type="curve" smooth="yes"/>
      <point x="37" y="1"/>
      <point x="38" y="0"/>
      <point x="56" y="0" type="curve" smooth="yes"/>
      <point x="715" y="0" type="line" smooth="yes"/>
      <point x="733" y="0"/>
      <point x="734" y="1"/>
      <point x="734" y="5" type="curve" smooth="yes"/>
      <point x="734" y="6"/>
      <point x="730" y="15"/>
      <point x="729" y="17" type="curve" smooth="yes"/>
    </contour>
    <contour>
      <point x="361" y="631" type="line"/>
      <point x="638" y="56" type="line"/>
      <point x="83" y="56" type="line"/>
    </contour>
  </outline>
</glyph>
<glyph name="dotlessj" format="2">
  <advance width="275"/>
  <outline>
    <contour>
      <point x="131" y="346" type="curve" smooth="yes"/>
      <point x="131" y="-59" type="line" smooth="yes"/>
      <point x="131" y="-109"/>
      <point x="122" y="-187"/>
      <point x="63" y="-187" type="curve" smooth="yes"/>
      <point x="56" y="-187"/>
      <point x="29" y="-186"/>
      <point x="7" y="-172" type="curve"/>
      <point x="14" y="-171"/>
      <point x="39" y="-164"/>
      <point x="39" y="-136" type="curve" smooth="yes"/>
      <point x="39" y="-117"/>
      <point x="26" y="-100"/>
      <point x="3" y="-100" type="curve" smooth="yes"/>
      <point x="-19" y="-100"/>
      <point x="-33" y="-115"/>
      <point x="-33" y="-137" type="curve" smooth="yes"/>
      <point x="-33" y="-177"/>
      <point x="11" y="-203"/>
      <point x="62" y="-203" type="curve" smooth="yes"/>
      <point x="131" y="-203"/>
      <point x="182" y="-140"/>
      <point x="182" y="-55" type="curve" smooth="yes"/>
      <point x="182" y="438" type="line"/>
      <point x="57" y="427" type="line"/>
      <point x="57" y="401" type="line"/>
      <point x="123" y="401"/>
      <point x="131" y="394"/>
    </contour>
  </outline>
</glyph>
<glyph name="ff" format="2">
  <advance width="525"/>
  <outline>
    <contour>
      <point x="399" y="404" type="line"/>
      <point x="513" y="404" type="line"/>
      <point x="513" y="430" type="line"/>
      <point x="397" y="430" type="line"/>
      <point x="397" y="551" type="line" smooth="yes"/>
      <point x="397" y="634"/>
      <point x="439" y="686"/>
      <point x="482" y="686" type="curve" smooth="yes"/>
      <point x="495" y="686"/>
      <point x="510" y="682"/>
      <point x="520" y="675" type="curve"/>
      <point x="512" y="673"/>
      <point x="491" y="666"/>
      <point x="491" y="641" type="curve" smooth="yes"/>
      <point x="491" y="615"/>
      <point x="511" y="607"/>
      <point x="525" y="607" type="curve" smooth="yes"/>
      <point x="539" y="607"/>
      <point x="559" y="615"/>
      <point x="559" y="641" type="curve" smooth="yes"/>
      <point x="559" y="679"/>
      <point x="523" y="702"/>
      <point x="483" y="702" type="curve" smooth="yes"/>
      <point x="444" y="702"/>
      <point x="412" y="683"/>
      <point x="387" y="659" type="curve"/>
      <point x="364" y="692"/>
      <point x="326" y="702"/>
      <point x="287" y="702" type="curve" smooth="yes"/>
      <point x="209" y="702"/>
      <point x="99" y="657"/>
      <point x="99" y="547" type="curve" smooth="yes"/>
      <point x="99" y="430" type="line"/>
      <point x="19" y="430" type="line"/>
      <point x="19" y="404" type="line"/>
      <point x="99" y="404" type="line"/>
      <point x="99" y="69" type="line" smooth="yes"/>
      <point x="99" y="31"/>
      <point x="95" y="26"/>
      <point x="31" y="26" type="curve"/>
      <point x="31" y="0" type="line"/>
      <point x="55" y="2"/>
      <point x="99" y="2"/>
      <point x="124" y="2" type="curve" smooth="yes"/>
      <point x="150" y="2"/>
      <point x="194" y="2"/>
      <point x="218" y="0" type="curve"/>
      <point x="218" y="26" type="line"/>
      <point x="154" y="26"/>
      <point x="150" y="30"/>
      <point x="150" y="69" type="curve" smooth="yes"/>
      <point x="150" y="404" type="line"/>
      <point x="348" y="404" type="line"/>
      <point x="348" y="69" type="line" smooth="yes"/>
      <point x="348" y="31"/>
      <point x="344" y="26"/>
      <point x="280" y="26" type="curve"/>
      <point x="280" y="0" type="line"/>
      <point x="304" y="2"/>
      <point x="350" y="2"/>
      <point x="376" y="2" type="curve" smooth="yes"/>
      <point x="405" y="2"/>
      <point x="456" y="2"/>
      <point x="483" y="0" type="curve"/>
      <point x="483" y="26" type="line"/>
      <point x="483" y="26" type="line"/>
      <point x="411" y="26"/>
      <point x="399" y="26"/>
      <point x="399" y="71" type="curve" smooth="yes"/>
    </contour>
    <contour>
      <point x="148" y="430" type="line"/>
      <point x="148" y="547" type="line" smooth="yes"/>
      <point x="148" y="638"/>
      <point x="218" y="686"/>
      <point x="285" y="686" type="curve" smooth="yes"/>
      <point x="300" y="686"/>
      <point x="339" y="683"/>
      <point x="363" y="661" type="curve"/>
      <point x="345" y="660"/>
      <point x="328" y="652"/>
      <point x="328" y="627" type="curve" smooth="yes"/>
      <point x="328" y="601"/>
      <point x="351" y="594"/>
      <point x="353" y="594" type="curve"/>
      <point x="348" y="576"/>
      <point x="348" y="556"/>
      <point x="348" y="549" type="curve" smooth="yes"/>
      <point x="348" y="430" type="line"/>
    </contour>
  </outline>
</glyph>
<glyph name="suppress" format="2">
  <advance width="249"/>
  <outline>
    <contour>
      <point x="237" y="367" type="line"/>
      <point x="227" y="391" type="line"/>
      <point x="18" y="304" type="line"/>
      <point x="28" y="280" type="line"/>
    </contour>
  </outline>
</glyph>
